<?xml version="1.0" standalone="no"?><!DOCTYPE svg PUBLIC "-//W3C//DTD SVG 1.1//EN" "http://www.w3.org/Graphics/SVG/1.1/DTD/svg11.dtd"><svg t="1765978240102" class="icon" viewBox="0 0 1116 1024" version="1.1" xmlns="http://www.w3.org/2000/svg" p-id="1033" xmlns:xlink="http://www.w3.org/1999/xlink" width="217.96875" height="200"><path d="M1016.376928 100.16447a341.99816 341.99816 0 0 0-458.118465-23.077228 341.949216 341.949216 0 0 0-458.093993 506.573303l427.552762 427.65065a43.2178 43.2178 0 0 0 61.180351 0l427.479345-427.552762a341.99816 341.99816 0 0 0 0-483.593963zM963.150023 530.556L558.258463 935.447561 153.366903 530.556a266.746329 266.746329 0 0 1 357.293247-395.225064 75.202887 75.202887 0 0 0 95.270042 0 266.746329 266.746329 0 0 1 357.293248 395.225064z" p-id="1034"></path><path d="M217.630743 212.2224a25.695747 25.695747 0 0 0-18.892492 6.313812 165.651917 165.651917 0 0 0-9.593079 8.932332 184.691242 184.691242 0 0 0-46.105512 76.891464 26.062829 26.062829 0 0 0 17.399691 32.47453 26.111774 26.111774 0 0 0 32.47453-17.399691A132.345334 132.345334 0 0 1 225.975743 264.299115c2.202493-2.202493 4.527346-4.380513 6.901143-6.436173a26.038357 26.038357 0 0 0-15.246143-45.640542zM294.375375 157.33139a184.691242 184.691242 0 0 0-31.177507 10.718797 26.038357 26.038357 0 1 0 21.290762 47.549368 130.950422 130.950422 0 0 1 22.343064-7.586363 26.038357 26.038357 0 0 0-12.456319-50.583914z" p-id="1035"></path></svg>