<?xml version="1.0" standalone="no"?><!DOCTYPE svg PUBLIC "-//W3C//DTD SVG 1.1//EN" "http://www.w3.org/Graphics/SVG/1.1/DTD/svg11.dtd"><svg t="1765978249108" class="icon" viewBox="0 0 1024 1024" version="1.1" xmlns="http://www.w3.org/2000/svg" p-id="1185" xmlns:xlink="http://www.w3.org/1999/xlink" width="200" height="200"><path d="M512 0C229.225115 0 0 229.225115 0 512s229.225115 512 512 512S1024 794.774885 1024 512 794.774885 0 512 0z m314.944875 826.944875A445.408343 445.408343 0 1 1 197.055125 197.055125a445.408343 445.408343 0 1 1 629.88975 629.88975z" p-id="1186"></path><path d="M306.740747 787.952974a398.455317 398.455317 0 0 1-28.55839-24.188801 23.051816 23.051816 0 0 0-31.389707 33.775146c6.844204 6.35374 13.978229 12.573718 21.201428 18.503875 3.500131 2.875904 7.067143 5.707219 10.611861 8.427066a22.828877 22.828877 0 0 0 12.261604 4.726291h1.8058a23.051816 23.051816 0 0 0 14.067404-41.310459zM483.240965 865.803013a401.823914 401.823914 0 0 1-126.183053-44.721414 23.051816 23.051816 0 1 0-22.427589 40.284943 447.882957 447.882957 0 0 0 140.629452 49.848994c0.735696 0.133763 1.471392 0.222938 2.229383 0.28982h1.828094a23.051816 23.051816 0 0 0 3.946007-45.769224zM850.554036 548.049116h-323.260472V304.845772a32.74963 32.74963 0 0 0-65.499259 0v275.952974a32.74963 32.74963 0 0 0 32.74963 32.74963h356.032395a32.74963 32.74963 0 1 0 0-65.49926z" p-id="1187"></path></svg>