<?xml version="1.0" standalone="no"?><!DOCTYPE svg PUBLIC "-//W3C//DTD SVG 1.1//EN" "http://www.w3.org/Graphics/SVG/1.1/DTD/svg11.dtd"><svg t="1765978255685" class="icon" viewBox="0 0 1384 1024" version="1.1" xmlns="http://www.w3.org/2000/svg" p-id="1489" xmlns:xlink="http://www.w3.org/1999/xlink" width="270.3125" height="200"><path d="M1331.807999 181.882557H573.787769a85.507126 85.507126 0 0 1-169.486814 0H53.107827A53.107827 53.107827 0 0 0 0 234.990384v735.931134a53.078453 53.078453 0 0 0 53.107827 53.078453h351.193128a85.507126 85.507126 0 0 1 169.486814 0H1331.807999a53.078453 53.078453 0 0 0 53.078453-53.078453V234.990384a53.107827 53.107827 0 0 0-53.078453-53.107827z m-9.105877 779.933083H617.084748a148.220184 148.220184 0 0 0-125.337996-74.110092 17.859269 17.859269 0 0 0-5.404779 0 148.278932 148.278932 0 0 0-125.337996 74.110092H62.213704V244.096261H361.003977a148.278932 148.278932 0 0 0 125.337996 74.110092 17.859269 17.859269 0 0 0 5.404779 0 148.220184 148.220184 0 0 0 125.337996-74.110092H1322.702122z" p-id="1490"></path><path d="M153.948075 823.406304a25.467083 25.467083 0 0 0-25.437709 25.496457v40.594589a25.437709 25.437709 0 1 0 50.875418 0V848.902761a25.467083 25.467083 0 0 0-25.437709-25.496457zM153.948075 628.334912a25.437709 25.437709 0 0 0-25.437709 25.437709v125.220501a25.437709 25.437709 0 1 0 50.875418 0v-125.220501a25.437709 25.437709 0 0 0-25.437709-25.437709zM489.044362 811.421795a19.739192 19.739192 0 1 0 19.739192 19.739192 19.739192 19.739192 0 0 0-19.739192-19.739192zM489.044362 735.343658a19.739192 19.739192 0 1 0 19.739192 19.739192 19.739192 19.739192 0 0 0-19.739192-19.739192zM489.044362 659.294895a19.739192 19.739192 0 1 0 19.739192 19.739192 19.739192 19.739192 0 0 0-19.739192-19.739192zM489.044362 583.216758a19.739192 19.739192 0 1 0 19.739192 19.739193 19.739192 19.739192 0 0 0-19.739192-19.739193zM489.044362 507.138622a19.739192 19.739192 0 1 0 19.739192 19.739192 19.739192 19.739192 0 0 0-19.739192-19.739192zM489.044362 431.060485a19.739192 19.739192 0 1 0 19.739192 19.739192 19.739192 19.739192 0 0 0-19.739192-19.739192zM489.044362 355.011722a19.739192 19.739192 0 1 0 19.739192 19.739192 19.739192 19.739192 0 0 0-19.739192-19.739192zM796.206167 593.115728h21.442873c1.351195 0 1.498064 0.264364 0.411233 0.822467l-31.165599 16.596196q-28.727574 15.39187-17.389289 43.296978t42.474512 12.131378l14.158171-6.873468c1.086831-0.528728 1.644933 0 1.644932 1.204325q0 17.418662 33.985485 17.418662H872.401799c1.351195 0 1.879923 0.675597 1.615559 2.026793q-6.462236 22.647198-14.15817 28.316341a117.318949 117.318949 0 0 1-25.085224 14.686899l-15.773729 6.873468q-29.961274 12.571986-23.087806 40.065861t39.654628 18.622988a145.4003 145.4003 0 0 0 67.559735-40.477094q25.085223-26.025185 32.693037-66.355409a4.141706 4.141706 0 0 1 4.464817-3.642351h63.535525a1.791802 1.791802 0 0 1 2.026792 2.026792q-4.053584 46.998077-7.695935 50.963539a60.862509 60.862509 0 0 1-6.667852 6.49161 10.603941 10.603941 0 0 1-7.284702 2.232408c-2.93738 0-6.755974 0-11.749519 0.205617a92.850575 92.850575 0 0 1-13.570694-0.205617c-4.02421-0.411233-6.609105 8.43028-7.666562 26.436418s9.428989 26.965147 32.311178 27.523249a89.825074 89.825074 0 0 0 18.622988-0.998709c5.375405-0.969335 13.600068-2.232409 24.67399-3.847968 3.78922-0.558102 9.840222-5.669143 18.211755-15.39187q8.518401-9.693353 13.365078-35.248557a658.913036 658.913036 0 0 0 8.077794-74.462578c0-1.321821 0.675597-1.733054 2.026793-1.204326a223.59335 223.59335 0 0 0 31.576832 12.131379q16.155589 4.87605 23.058432-22.647199t-26.700783-34.396717q-4.053584-0.793093-39.272767-23.058431c-1.086831-0.822466-0.939962-1.2337 0.411233-1.2337h35.248557q33.95611 0 33.985484-26.289549t-33.985484-25.90769h-145.253431c-1.351195 0-1.762428-0.528728-1.233699-1.615559l4.87605-9.722727a9.693353 9.693353 0 0 1 9.311494-5.669143h107.625596q34.014858 0 34.014858-25.878316t-34.014858-25.496456h-8.077794c-1.351195 0-1.615559-0.558102-0.822467-1.644933q19.034221-29.373798-5.669143-42.063279t-29.373798 0.176243A267.066571 267.066571 0 0 1 1004.58389 466.455912a11.749519 11.749519 0 0 1-10.927053 6.080376h-17.800521c-1.351195 0-1.879923-0.675597-1.615559-2.026792 5.111041-17.829895 8.43028-30.959983 9.928344-39.478385s-8.048421-14.363787-28.551332-17.624279-31.899945 0.881214-33.368635 12.336996a258.489422 258.489422 0 0 1-9.928343 41.887035 6.374114 6.374114 0 0 1-6.462236 4.876051h-25.496456c-1.351195 0-1.498064-0.264364-0.411234-0.822466q12.131379-6.080376-4.846676-32.781159t-36.04165-12.542612q-18.975473 14.980637-14.951263 20.561659a227.265075 227.265075 0 0 1 13.746937 24.05714c0.528728 1.086831 0.146869 1.644933-1.204326 1.644933h-15.803103q-33.95611 0-33.985484 25.496457t33.985484 25.878316h63.946758c1.351195 0 1.615559 0.558102 0.822466 1.615559l-6.080376 8.812139a13.92318 13.92318 0 0 1-12.131378 6.491609h-71.202087q-34.014858 0-33.985484 25.90769t33.985484 26.289549z m81.336047 30.754367a209.728917 209.728917 0 0 0 25.496457-24.262757 18.505493 18.505493 0 0 1 14.686899-6.49161H969.335333a18.064886 18.064886 0 0 1 14.15817 6.49161 170.544271 170.544271 0 0 0 24.292131 24.262757c1.057457 0.822466 0.939962 1.2337-0.411233 1.233699h-129.420954c-1.351195 0-1.498064-0.411233-0.411233-1.233699zM1246.50649 41.123317A56.544561 56.544561 0 0 0 1176.655599 2.173661L640.348795 154.653046h638.468873z" p-id="1491"></path></svg>