<?xml version="1.0" standalone="no"?><!DOCTYPE svg PUBLIC "-//W3C//DTD SVG 1.1//EN" "http://www.w3.org/Graphics/SVG/1.1/DTD/svg11.dtd"><svg t="1765978252386" class="icon" viewBox="0 0 1092 1024" version="1.1" xmlns="http://www.w3.org/2000/svg" p-id="1337" xmlns:xlink="http://www.w3.org/1999/xlink" width="213.28125" height="200"><path d="M1025.670174 402.397658C985.471591 174.041334 785.645508 0 545.941149 0S106.364948 174.109972 66.212123 402.512054C27.454923 424.659025 0 478.173247 0 540.541681c0 82.250374 47.519896 148.942959 106.159037 148.942958s106.136157-66.692584 106.136157-148.942958c0-64.747861-29.445405-119.817861-70.559153-140.363295C181.751592 213.805215 347.762361 73.647832 545.941149 73.647832S910.199343 213.850973 950.192015 400.384297c-41.022231 20.591192-70.398999 75.615434-70.398999 140.271779 0 59.485667 24.915343 110.940769 60.92705 134.780794a424.613267 424.613267 0 0 1-273.611189 244.806399c-16.518712-23.519718-50.608575-39.672364-90.029269-39.672364-55.57334 0-100.668052 32.030744-100.668052 71.725987s45.071832 71.703108 100.668052 71.703108c49.624774 0 90.852917-25.624595 99.089393-59.302634a473.162723 473.162723 0 0 0 307.289229-275.304243h2.470943c58.63914 0 106.159037-66.692584 106.159037-148.942959 0-62.45995-27.477802-115.974172-66.418036-138.052506z" p-id="1338"></path><path d="M694.220614 710.281744a28.324329 28.324329 0 0 0-40.061309-40.061309 153.289988 153.289988 0 0 1-216.413433 0 28.324329 28.324329 0 1 0-40.061309 40.061309 209.641218 209.641218 0 0 0 296.536051 0z" p-id="1339"></path></svg>