<?xml version="1.0" standalone="no"?><!DOCTYPE svg PUBLIC "-//W3C//DTD SVG 1.1//EN" "http://www.w3.org/Graphics/SVG/1.1/DTD/svg11.dtd"><svg t="1765978265381" class="icon" viewBox="0 0 1024 1024" version="1.1" xmlns="http://www.w3.org/2000/svg" p-id="1641" xmlns:xlink="http://www.w3.org/1999/xlink" width="200" height="200"><path d="M486.518238 935.269483a36.05975 36.05975 0 0 0 50.963524 0l255.92502-255.92502A397.949217 397.949217 0 0 0 230.616289 116.553971a397.972288 397.972288 0 0 0 0 562.790492zM281.556742 167.517495a325.89893 325.89893 0 1 1 460.886516 460.886515l-230.431723 230.431723-230.454793-230.431723a325.922001 325.922001 0 0 1 0-460.886515z" p-id="1642"></path><path d="M853.898569 875.400608c-32.922113-10.658736-79.779024-19.679441-135.541286-26.093139a22.171094 22.171094 0 0 0-5.052518 44.065337c102.388465 11.743066 145.04648 28.79243 158.035372 37.766993-8.859209 6.113777-35.067703 19.171882-107.094919 30.93802-69.350997 11.327791-158.935136 17.579993-252.233683 17.579993S329.105779 973.40561 259.777853 962.054748c-72.027216-11.766137-98.23571-24.824242-107.09492-30.938019 12.988893-8.974563 55.623837-26.023927 158.012302-37.766994A22.171094 22.171094 0 1 0 305.758071 849.307469c-55.739191 6.413698-102.619173 15.434404-135.541286 26.093139C142.185693 884.444384 105.041613 900.086426 105.041613 931.232083c0 32.991326 40.374 55.116278 130.880973 71.727295 73.942098 13.565664 171.993241 21.040622 276.088949 21.040622s202.123781-7.474958 276.088949-21.040622c90.506973-16.611017 130.857902-38.735969 130.857903-71.727295 0-31.145657-37.121009-46.787699-65.059818-55.831475z" p-id="1643"></path><path d="M512.011535 363.227577m-133.534121 0a133.534122 133.534122 0 1 0 267.068243 0 133.534122 133.534122 0 1 0-267.068243 0Z" p-id="1644"></path></svg>