<?xml version="1.0" standalone="no"?><!DOCTYPE svg PUBLIC "-//W3C//DTD SVG 1.1//EN" "http://www.w3.org/Graphics/SVG/1.1/DTD/svg11.dtd"><svg t="1765978292614" class="icon" viewBox="0 0 1024 1024" version="1.1" xmlns="http://www.w3.org/2000/svg" p-id="1946" xmlns:xlink="http://www.w3.org/1999/xlink" width="200" height="200"><path d="M872.92634 0H151.072833A98.603643 98.603643 0 0 0 52.581906 98.490927v599.647209a97.949892 97.949892 0 0 0 45.987982 83.409574l360.915481 227.36999a98.964333 98.964333 0 0 0 105.028435 0l360.915481-227.437619a97.949892 97.949892 0 0 0 45.987982-83.409575v-599.647208A98.603643 98.603643 0 0 0 872.92634 0z m20.89748 698.160679a20.807307 20.807307 0 0 1-9.761175 17.673812L523.12462 943.272111a21.010195 21.010195 0 0 1-22.27261 0L139.936528 715.834491a20.807307 20.807307 0 0 1-9.761175-17.673812v-599.647209a20.920023 20.920023 0 0 1 20.89748-20.89748H872.92634a20.920023 20.920023 0 0 1 20.89748 20.89748z" p-id="1947"></path><path d="M511.988315 216.098426a241.865222 241.865222 0 1 0 241.865222 241.865222A242.113196 242.113196 0 0 0 511.988315 216.098426z m0 424.036241a182.171019 182.171019 0 1 1 182.171019-182.171019A182.39645 182.39645 0 0 1 511.988315 640.22484z" p-id="1948"></path><path d="M619.451407 418.964037l-53.83299-7.822466a17.854157 17.854157 0 0 1-13.525877-9.783717l-24.030975-48.78333a17.899244 17.899244 0 0 0-32.123957 0L471.88409 401.267681a17.876701 17.876701 0 0 1-13.525877 9.783718l-53.83299 7.822465a17.899244 17.899244 0 0 0-9.918976 30.545939L433.560772 487.472603a18.034503 18.034503 0 0 1 5.139833 15.78019l-9.197596 53.607559a17.899244 17.899244 0 0 0 25.992227 18.868598l48.174665-25.225761a18.034503 18.034503 0 0 1 16.659371 0l48.152122 25.315933a17.876701 17.876701 0 0 0 25.969684-18.868598l-9.175053-53.607559a17.899244 17.899244 0 0 1 5.139833-15.780189l38.954525-37.962628a18.034503 18.034503 0 0 0-9.918976-30.636111z" p-id="1949"></path></svg>