<?xml version="1.0" standalone="no"?><!DOCTYPE svg PUBLIC "-//W3C//DTD SVG 1.1//EN" "http://www.w3.org/Graphics/SVG/1.1/DTD/svg11.dtd"><svg t="1765978268976" class="icon" viewBox="0 0 1148 1024" version="1.1" xmlns="http://www.w3.org/2000/svg" p-id="1794" xmlns:xlink="http://www.w3.org/1999/xlink" width="224.21875" height="200"><path d="M1133.969283 457.413361l-232.578159-402.826722A109.462734 109.462734 0 0 0 806.859512 0H341.703194a109.486856 109.486856 0 0 0-94.555733 54.586639l-232.554038 402.826722a109.414492 109.414492 0 0 0 0 109.173278l232.578159 402.826722a109.486856 109.486856 0 0 0 94.555734 54.586639H806.859512a109.462734 109.462734 0 0 0 94.531612-54.586639l232.578159-402.826722a109.462734 109.462734 0 0 0 0-109.173278z m-74.486762 66.164892l-232.578158 402.826722a23.180628 23.180628 0 0 1-20.044851 11.602374H341.703194a23.252992 23.252992 0 0 1-20.068972-11.578253l-232.578159-402.826722a23.277113 23.277113 0 0 1 0-23.156506l232.554038-402.826722a23.252992 23.252992 0 0 1 20.068972-11.578253H806.859512a23.204749 23.204749 0 0 1 20.044851 11.578253l232.578158 402.826722a23.204749 23.204749 0 0 1 0 23.132385z" p-id="1795"></path><path d="M574.291481 512.011905m-27.363231 168.572833a170.779233 170.779233 0 1 0 54.726463-337.145666 170.779233 170.779233 0 1 0-54.726463 337.145666Z" p-id="1796"></path></svg>