<?xml version="1.0" standalone="no"?><!DOCTYPE svg PUBLIC "-//W3C//DTD SVG 1.1//EN" "http://www.w3.org/Graphics/SVG/1.1/DTD/svg11.dtd"><svg t="1765977926017" class="icon" viewBox="0 0 1024 1024" version="1.1" xmlns="http://www.w3.org/2000/svg" p-id="1807" xmlns:xlink="http://www.w3.org/1999/xlink" width="200" height="200"><path d="M512 512m-512 0a512 512 0 1 0 1024 0 512 512 0 1 0-1024 0Z" fill="#E0F7FF" p-id="1808"></path><path d="M535.68 229.12l213.333333 142.208a42.666667 42.666667 0 0 1 18.986667 35.498667V725.333333a42.666667 42.666667 0 0 1-42.666667 42.666667H298.666667a42.666667 42.666667 0 0 1-42.666667-42.666667V406.826667a42.666667 42.666667 0 0 1 18.986667-35.498667l213.333333-142.208a42.666667 42.666667 0 0 1 47.36 0z m29.781333 209.92l-53.333333 53.333333-53.333333-53.333333-30.208 30.165333 15.104 15.104 2.346666 2.346667 9.472 9.472 2.517334 2.474667 13.226666 13.269333h-44.458666v42.666667h64v32h-64v42.666666h64v53.333334h42.666666v-53.333334h64v-42.666666h-64v-32h64v-42.666667h-44.544l27.605334-27.562667 15.104-15.104-30.165334-30.165333z" fill="#00B7F4" p-id="1809"></path></svg>