<?xml version="1.0" standalone="no"?><!DOCTYPE svg PUBLIC "-//W3C//DTD SVG 1.1//EN" "http://www.w3.org/Graphics/SVG/1.1/DTD/svg11.dtd"><svg t="1765977916617" class="icon" viewBox="0 0 1024 1024" version="1.1" xmlns="http://www.w3.org/2000/svg" p-id="1651" xmlns:xlink="http://www.w3.org/1999/xlink" width="200" height="200"><path d="M512 512m-512 0a512 512 0 1 0 1024 0 512 512 0 1 0-1024 0Z" fill="#E0F7FF" p-id="1652"></path><path d="M533.333333 225.664l215.978667 124.672a42.666667 42.666667 0 0 1 21.333333 36.949333v249.429334a42.666667 42.666667 0 0 1-21.333333 36.949333L533.333333 798.293333a42.666667 42.666667 0 0 1-42.666666 0L274.688 673.706667a42.666667 42.666667 0 0 1-21.333333-36.949334V387.285333a42.666667 42.666667 0 0 1 21.333333-36.949333L490.666667 225.706667a42.666667 42.666667 0 0 1 42.666666 0zM512 426.666667a85.333333 85.333333 0 1 0 0 170.666666 85.333333 85.333333 0 0 0 0-170.666666z m0 42.666666a42.666667 42.666667 0 1 1 0 85.333334 42.666667 42.666667 0 0 1 0-85.333334z" fill="#00B7F4" p-id="1653"></path></svg>