<?xml version="1.0" standalone="no"?><!DOCTYPE svg PUBLIC "-//W3C//DTD SVG 1.1//EN" "http://www.w3.org/Graphics/SVG/1.1/DTD/svg11.dtd"><svg t="1765977897736" class="icon" viewBox="0 0 1024 1024" version="1.1" xmlns="http://www.w3.org/2000/svg" p-id="1335" xmlns:xlink="http://www.w3.org/1999/xlink" width="200" height="200"><path d="M512 512m-512 0a512 512 0 1 0 1024 0 512 512 0 1 0-1024 0Z" fill="#FEEEED" p-id="1336"></path><path d="M384 298.666667a42.666667 42.666667 0 1 0 85.333333 0h256a42.666667 42.666667 0 0 1 42.666667 42.666666v341.333334a42.666667 42.666667 0 0 1-42.666667 42.666666h-256a42.666667 42.666667 0 0 0-85.333333 0H298.666667a42.666667 42.666667 0 0 1-42.666667-42.666666V341.333333a42.666667 42.666667 0 0 1 42.666667-42.666666h85.333333z m64 256h-42.666667v64h42.666667V554.666667z m0-149.333334h-42.666667V469.333333h42.666667V405.333333z" fill="#F5564D" p-id="1337"></path></svg>