<?xml version="1.0" standalone="no"?><!DOCTYPE svg PUBLIC "-//W3C//DTD SVG 1.1//EN" "http://www.w3.org/Graphics/SVG/1.1/DTD/svg11.dtd"><svg t="1765977834551" class="icon" viewBox="0 0 1024 1024" version="1.1" xmlns="http://www.w3.org/2000/svg" p-id="3527" xmlns:xlink="http://www.w3.org/1999/xlink" width="200" height="200"><path d="M514.5088 69.8368c-244.992 0-444.2624 199.3216-444.2624 444.2624 0 244.992 199.3216 444.2624 444.2624 444.2624 244.992 0 444.2624-199.3216 444.2624-444.2624 0-244.992-199.2704-444.2624-444.2624-444.2624z m112.9984 446.6176h-82.5856v36.0448h82.5856v71.68h-82.5856v37.376h-71.68v-37.376H390.656v-71.68h82.5856v-36.0448H390.656v-71.68h44.9536l-35.072-38.2464 52.8384-48.4352 53.0432 57.856 49.8176-59.904 55.1424 45.824-35.6864 42.9568h51.8656v71.6288z" fill="#F79321" p-id="3528"></path><path d="M514.5088 834.3552c-176.5888 0-320.256-143.6672-320.256-320.256V455.936l138.6496 69.8368-32.256 64-26.88-13.5168c27.648 107.1104 125.1328 186.4704 240.7424 186.4704 67.6864 0 130.9184-26.7264 178.176-75.2128l51.3536 50.0224c-60.8256 62.4128-142.336 96.8192-229.5296 96.8192zM834.7648 569.9072l-148.6336-67.9424 29.7984-65.1776 40.0896 18.3296c-26.5728-108.6976-124.7744-189.5936-241.5104-189.5936-64.8704 0-126.208 24.832-172.8 69.888L291.84 283.8528c60.0576-58.0608 139.1104-90.0608 222.6688-90.0608 176.5888 0 320.256 143.6672 320.256 320.256v55.8592z" fill="#FECC87" p-id="3529"></path></svg>