<?xml version="1.0" standalone="no"?><!DOCTYPE svg PUBLIC "-//W3C//DTD SVG 1.1//EN" "http://www.w3.org/Graphics/SVG/1.1/DTD/svg11.dtd"><svg t="1765977684133" class="icon" viewBox="0 0 1024 1024" version="1.1" xmlns="http://www.w3.org/2000/svg" p-id="2942" xmlns:xlink="http://www.w3.org/1999/xlink" width="200" height="200"><path d="M510.9248 511.488m-450.816 0a450.816 450.816 0 1 0 901.632 0 450.816 450.816 0 1 0-901.632 0Z" fill="#E9F4FF" p-id="2943"></path><path d="M720.128 229.4272H314.2144a69.888 69.888 0 0 0-69.888 69.888v431.6672a69.888 69.888 0 0 0 69.888 69.888h317.44a69.8368 69.8368 0 0 0 50.2272-21.2992l88.32-91.2896a69.7856 69.7856 0 0 0 19.6608-48.5888V299.3152a69.888 69.888 0 0 0-69.7344-69.888zM510.464 677.9904H370.688a31.6928 31.6928 0 1 1 0-63.3344h139.776a31.6928 31.6928 0 0 1 0 63.3344z m150.9888-139.776H370.688a31.6928 31.6928 0 1 1 0-63.3344h290.7648a31.6928 31.6928 0 0 1 0 63.3344z m0-135.3216H370.688a31.6928 31.6928 0 1 1 0-63.3344h290.7648a31.6928 31.6928 0 0 1 0 63.3344z" fill="#2595E8" p-id="2944"></path><path d="M371.8144 745.7792a450.9184 450.9184 0 0 0 418.2016-282.2144V299.3152a69.888 69.888 0 0 0-69.888-69.888H314.2144a69.888 69.888 0 0 0-69.888 69.888v428.1344a449.5872 449.5872 0 0 0 127.488 18.3296z m-1.1264-406.2208h290.7648a31.6928 31.6928 0 0 1 0 63.3344H370.688a31.6928 31.6928 0 1 1 0-63.3344z m0 135.3216h290.7648a31.6928 31.6928 0 0 1 0 63.3344H370.688a31.6928 31.6928 0 1 1 0-63.3344z m0 139.776h139.776a31.6928 31.6928 0 0 1 0 63.3344H370.688a31.6928 31.6928 0 1 1 0-63.3344z" fill="#3EA6ED" p-id="2945"></path><path d="M338.9952 506.5216a31.6928 31.6928 0 0 1 31.6928-31.6416h173.824a454.5536 454.5536 0 0 0 66.56-71.9872H370.688a31.6928 31.6928 0 1 1 0-63.3344H650.24a448.6144 448.6144 0 0 0 39.0656-110.1312H314.2144a69.888 69.888 0 0 0-69.888 69.888v286.3104h4.1984a448.9216 448.9216 0 0 0 201.5232-47.4624H370.688a31.6928 31.6928 0 0 1-31.6928-31.6416z" fill="#59ADF8" p-id="2946"></path><path d="M339.6096 377.1904a28.6208 28.6208 0 0 1-0.6144-5.9904 31.6928 31.6928 0 0 1 31.6928-31.6416h30.1056a454.4512 454.4512 0 0 0 106.752-110.1312H314.2144a69.888 69.888 0 0 0-69.888 69.888v113.5104a449.0752 449.0752 0 0 0 95.2832-35.6352z" fill="#6BC2FC" p-id="2947"></path></svg>