<?xml version="1.0" standalone="no"?><!DOCTYPE svg PUBLIC "-//W3C//DTD SVG 1.1//EN" "http://www.w3.org/Graphics/SVG/1.1/DTD/svg11.dtd"><svg t="1765977734206" class="icon" viewBox="0 0 1024 1024" version="1.1" xmlns="http://www.w3.org/2000/svg" p-id="5197" xmlns:xlink="http://www.w3.org/1999/xlink" width="200" height="200"><path d="M512.768 511.488m-450.816 0a450.816 450.816 0 1 0 901.632 0 450.816 450.816 0 1 0-901.632 0Z" fill="#FFF7DC" p-id="5198"></path><path d="M698.0096 212.0192H322.9696c-37.9392 0-68.7104 29.44-68.7104 65.6896v473.8048c0 36.2496 30.72 65.6896 68.7104 65.6896h241.8688a186.3168 186.3168 0 0 1 201.8304-312.6272V277.7088c0-36.2496-30.7712-65.6896-68.6592-65.6896z m-263.8848 424.0384H378.5216a28.8768 28.8768 0 0 1 0-57.7024h55.6032a28.8768 28.8768 0 1 1 0 57.7024z m61.7472-120.7808H378.5216a28.8768 28.8768 0 0 1 0-57.7024h117.3504a28.8768 28.8768 0 0 1 0 57.7024z m124.2624-110.4384H378.5216a28.8768 28.8768 0 0 1 0-57.7024h241.6128a28.8768 28.8768 0 1 1 0 57.7024z" fill="#FF8E12" p-id="5199"></path><path d="M674.304 522.24a144.4864 144.4864 0 1 0 144.4864 144.4864A144.4864 144.4864 0 0 0 674.304 522.24z m57.856 159.1808a24.7296 24.7296 0 1 1 0 49.4592h-33.9968v23.296a24.7296 24.7296 0 1 1-49.4592 0v-23.296H614.4a24.7296 24.7296 0 0 1 0-49.4592h34.048v-11.2128H614.4a24.7296 24.7296 0 0 1 0-49.4592h12.544l-13.9264-17.0496a24.7296 24.7296 0 1 1 38.3488-31.232l22.1184 27.1872 18.688-25.088A24.7296 24.7296 0 0 1 732.16 604.16l-12.4416 16.6912H732.16a24.7296 24.7296 0 1 1 0 49.4592h-33.9968v11.2128z" fill="#FF8E12" p-id="5200"></path><path d="M674.304 522.24a144.4864 144.4864 0 0 0-134.8608 196.4544 445.44 445.44 0 0 0 51.5584-19.5584 24.6272 24.6272 0 0 1 23.5008-17.4592h11.1104c6.4-3.584 12.7488-7.3216 18.944-11.2128H614.4a24.7296 24.7296 0 0 1 0-49.4592h12.544l-13.9264-17.0496a24.7296 24.7296 0 1 1 38.3488-31.232l22.1184 27.1872 18.688-25.088a24.6784 24.6784 0 0 1 43.9296 19.9168 440.832 440.832 0 0 0 31.6928-38.0416A143.7184 143.7184 0 0 0 674.304 522.24z" fill="#FCA315" p-id="5201"></path><path d="M766.6688 439.04V277.7088c0-36.2496-30.72-65.6896-68.6592-65.6896H322.9696c-37.9392 0-68.7104 29.44-68.7104 65.6896v434.6368a453.4272 453.4272 0 0 0 244.48 16.5888 186.3168 186.3168 0 0 1 267.9296-224.3072z m-332.544 197.0176H378.5216a28.8768 28.8768 0 0 1 0-57.7024h55.6032a28.8768 28.8768 0 1 1 0 57.7024z m61.7472-120.7808H378.5216a28.8768 28.8768 0 0 1 0-57.7024h117.3504a28.8768 28.8768 0 0 1 0 57.7024z m124.2624-110.4384H378.5216a28.8768 28.8768 0 0 1 0-57.7024h241.6128a28.8768 28.8768 0 1 1 0 57.7024z" fill="#FCA315" p-id="5202"></path><path d="M698.0096 212.0192H322.9696c-37.9392 0-68.7104 29.44-68.7104 65.6896v299.8272c9.3696 0.5632 18.8416 0.8704 28.3648 0.8704a450.9696 450.9696 0 0 0 441.9072-361.2672 71.3216 71.3216 0 0 0-26.5216-5.12z m-202.1376 303.2576H378.5216a28.8768 28.8768 0 0 1 0-57.7024h117.3504a28.8768 28.8768 0 0 1 0 57.7024z m124.2624-110.4384H378.5216a28.8768 28.8768 0 0 1 0-57.7024h241.6128a28.8768 28.8768 0 1 1 0 57.7024z" fill="#FCB138" p-id="5203"></path><path d="M254.2592 277.7088v133.12a445.8496 445.8496 0 0 0 95.8976-29.7472 28.416 28.416 0 0 1-0.4608-5.12 28.8256 28.8256 0 0 1 28.8256-28.8256h34.816a453.0176 453.0176 0 0 0 135.0144-135.1168h-225.28c-38.0416 0-68.8128 29.44-68.8128 65.6896z" fill="#FFC65E" p-id="5204"></path></svg>