<?xml version="1.0" standalone="no"?><!DOCTYPE svg PUBLIC "-//W3C//DTD SVG 1.1//EN" "http://www.w3.org/Graphics/SVG/1.1/DTD/svg11.dtd"><svg t="1765977819202" class="icon" viewBox="0 0 1024 1024" version="1.1" xmlns="http://www.w3.org/2000/svg" p-id="3211" xmlns:xlink="http://www.w3.org/1999/xlink" width="200" height="200"><path d="M130.816 193.3312h297.472v297.472h-297.472zM130.816 607.744h297.472v297.472h-297.472zM545.2288 607.744h297.472v297.472h-297.472zM509.2608 332.24704l196.9152-196.9152 196.91008 196.9152-196.9152 196.9152z" fill="#AECDFF" p-id="3212"></path><path d="M94.976 941.0048h369.152v-369.152h-369.152v369.152z m71.68-297.4208h225.792v225.792h-225.792v-225.792z" fill="#4D8DFF" p-id="3213"></path><path d="M953.7536 332.2368l-247.6032-247.6032-242.0736 242.0736V157.4912h-369.152v369.152h369.152V337.7664l234.1376 234.1376H509.3888v369.152h369.152v-369.152h-164.4032l239.616-239.6672zM392.3968 454.912h-225.792v-225.792h225.792v225.792z m313.7536-268.9024l146.2272 146.2272-146.2272 146.2272-146.2272-146.2272 146.2272-146.2272z m100.7104 683.3152h-225.792v-225.792h225.792v225.792z" fill="#4D8DFF" p-id="3214"></path></svg>