<?xml version="1.0" standalone="no"?><!DOCTYPE svg PUBLIC "-//W3C//DTD SVG 1.1//EN" "http://www.w3.org/Graphics/SVG/1.1/DTD/svg11.dtd"><svg t="1765977653183" class="icon" viewBox="0 0 1024 1024" version="1.1" xmlns="http://www.w3.org/2000/svg" p-id="1647" xmlns:xlink="http://www.w3.org/1999/xlink" width="200" height="200"><path d="M507.3408 511.488m-450.816 0a450.816 450.816 0 1 0 901.632 0 450.816 450.816 0 1 0-901.632 0Z" fill="#FFF1DC" p-id="1648"></path><path d="M795.7504 728.064h-16.4352V342.6816a41.3184 41.3184 0 0 0-51.456-40.96l-137.8816 37.9904a42.3936 42.3936 0 0 0-30.72 40.96v347.392h-16.4352V300.1344a51.6096 51.6096 0 0 0-38.3488-49.8176l-173.4656-46.08A51.5584 51.5584 0 0 0 266.24 254.0544v474.0096h-12.8a27.0336 27.0336 0 0 0 0 54.016h542.3104a27.0336 27.0336 0 0 0 0-54.016z m-162.6624-286.1056h78.08a27.0336 27.0336 0 0 1 0 54.016h-78.08a27.0336 27.0336 0 0 1 0-54.016z m0 99.6352h78.08a27.0336 27.0336 0 0 1 0 54.016h-78.08a27.0336 27.0336 0 0 1 0-54.016zM352.256 354.304H450.56a27.0336 27.0336 0 0 1 0 54.016H352.256a27.0336 27.0336 0 0 1 0-54.016z m0 126.1056H450.56a26.9824 26.9824 0 1 1 0 53.9648H352.256a26.9824 26.9824 0 1 1 0-53.9648z m0 108.4416H450.56a27.0336 27.0336 0 0 1 0 54.016H352.256a27.0336 27.0336 0 0 1 0-54.016z" fill="#FF8E12" p-id="1649"></path><path d="M423.2192 709.7344a451.7888 451.7888 0 0 0 119.8592-16.128V300.1344a51.6096 51.6096 0 0 0-38.3488-49.8176l-173.4656-46.08a51.5584 51.5584 0 0 0-64.768 49.8176v427.5712a450.56 450.56 0 0 0 156.7232 28.1088zM352.256 354.304H450.56a27.0336 27.0336 0 0 1 0 54.016H352.256a27.0336 27.0336 0 0 1 0-54.016z m0 126.1056H450.56a26.9824 26.9824 0 1 1 0 53.9648H352.256a26.9824 26.9824 0 1 1 0-53.9648z m0 108.4416H450.56a27.0336 27.0336 0 0 1 0 54.016H352.256a27.0336 27.0336 0 0 1 0-54.016zM727.8592 301.5168l-137.8816 37.9904a42.3936 42.3936 0 0 0-30.72 40.96v308.0704a451.6864 451.6864 0 0 0 219.8016-153.6V342.6816a41.3184 41.3184 0 0 0-51.2-41.1648z m-16.6912 294.0928h-78.08a27.0336 27.0336 0 0 1 0-54.016h78.08a27.0336 27.0336 0 0 1 0 54.016z m0-99.6352h-78.08a27.0336 27.0336 0 0 1 0-54.016h78.08a27.0336 27.0336 0 0 1 0 54.016z" fill="#FCA315" p-id="1650"></path><path d="M299.8784 549.632a450.9696 450.9696 0 0 0 116.5824-15.36H352.256a26.9824 26.9824 0 1 1 0-53.9648H450.56a26.9824 26.9824 0 0 1 26.9824 26.9824 28.2112 28.2112 0 0 1-0.768 6.2464 451.2256 451.2256 0 0 0 66.56-35.1744V300.1344a51.6096 51.6096 0 0 0-38.3488-49.8176l-173.4656-46.08a51.5584 51.5584 0 0 0-64.768 49.8176v294.2464q16.3328 1.3312 33.1264 1.3312zM352.256 354.304H450.56a27.0336 27.0336 0 0 1 0 54.016H352.256a27.0336 27.0336 0 0 1 0-54.016zM559.5136 380.672v86.6816a452.1984 452.1984 0 0 0 138.9056-157.7472l-108.4416 29.9008a42.3936 42.3936 0 0 0-30.464 41.1648z" fill="#FCB138" p-id="1651"></path><path d="M329.472 366.8992a26.9824 26.9824 0 0 1 22.784-12.5952h10.24a450.56 450.56 0 0 0 148.2752-101.9392 55.808 55.808 0 0 0-6.0416-2.048l-173.4656-46.08a51.5584 51.5584 0 0 0-64.768 49.8176v128.9728a445.1328 445.1328 0 0 0 62.976-16.128z" fill="#FFC65E" p-id="1652"></path></svg>