<?xml version="1.0" standalone="no"?><!DOCTYPE svg PUBLIC "-//W3C//DTD SVG 1.1//EN" "http://www.w3.org/Graphics/SVG/1.1/DTD/svg11.dtd"><svg t="1765977669997" class="icon" viewBox="0 0 1024 1024" version="1.1" xmlns="http://www.w3.org/2000/svg" p-id="2293" xmlns:xlink="http://www.w3.org/1999/xlink" width="200" height="200"><path d="M511.744 510.208m-450.816 0a450.816 450.816 0 1 0 901.632 0 450.816 450.816 0 1 0-901.632 0Z" fill="#FFF7DC" p-id="2294"></path><path d="M512 167.424a343.04 343.04 0 1 0 343.04 343.04 343.04 343.04 0 0 0-343.04-343.04z m35.84 521.6256a35.84 35.84 0 0 1-71.68 0V476.6208a35.84 35.84 0 0 1 71.68 0z m-35.84-282.624a40.96 40.96 0 1 1 40.96-40.704 40.96 40.96 0 0 1-40.96 40.704z" fill="#FF8E12" p-id="2295"></path><path d="M799.9488 324.6592a343.04 343.04 0 1 0-530.2784 428.288 454.9632 454.9632 0 0 0 79.7696 7.0144 450.56 450.56 0 0 0 450.5088-435.3024zM547.84 689.0496a35.84 35.84 0 0 1-71.68 0V476.6208a35.84 35.84 0 0 1 71.68 0z m-35.84-282.624a40.96 40.96 0 1 1 40.96-40.704 40.96 40.96 0 0 1-40.96 40.704z" fill="#FCA315" p-id="2296"></path><path d="M512 167.424a343.04 343.04 0 0 0-331.52 430.08 451.8912 451.8912 0 0 0 46.08 2.304A448.3584 448.3584 0 0 0 476.16 524.3392v-47.7184a35.84 35.84 0 0 1 70.2464-10.24 449.5872 449.5872 0 0 0 126.976-258.7648A340.8896 340.8896 0 0 0 512 167.424z m0 239.0016a40.96 40.96 0 1 1 40.96-40.704 40.96 40.96 0 0 1-40.96 40.704z" fill="#FCB138" p-id="2297"></path><path d="M177.152 435.712a451.2768 451.2768 0 0 0 349.696-267.9296c-5.12 0-10.24-0.3584-15.36-0.3584a343.04 343.04 0 0 0-334.336 268.288z" fill="#FFC65E" p-id="2298"></path></svg>