<?xml version="1.0" standalone="no"?><!DOCTYPE svg PUBLIC "-//W3C//DTD SVG 1.1//EN" "http://www.w3.org/Graphics/SVG/1.1/DTD/svg11.dtd"><svg t="1765977673465" class="icon" viewBox="0 0 1024 1024" version="1.1" xmlns="http://www.w3.org/2000/svg" p-id="2454" xmlns:xlink="http://www.w3.org/1999/xlink" width="200" height="200"><path d="M515.328 511.488m-450.816 0a450.816 450.816 0 1 0 901.632 0 450.816 450.816 0 1 0-901.632 0Z" fill="#E3FFF3" p-id="2455"></path><path d="M641.3824 405.1968h10.24c-17.8688-97.28-118.3232-171.7248-239.616-171.7248-133.888 0-242.432 90.7776-242.432 202.752 0 65.6384 37.3248 124.0576 95.1808 161.0752l2.2016 1.3824-23.4496 73.4208 87.6544-44.6464 4.1472 1.1776a285.7472 285.7472 0 0 0 76.8 10.24c5.4784 0 10.9056 0 16.2816-0.512a157.3888 157.3888 0 0 1-7.68-48.384c0-102.4 98.8672-185.088 220.8256-185.088z m-145.0496-71.68a32.9728 32.9728 0 1 1-34.048 32.9728 33.4848 33.4848 0 0 1 34.048-32.9728zM327.68 399.36a32.9728 32.9728 0 1 1 34.0992-32.9728A33.4848 33.4848 0 0 1 327.68 399.36z m0 0" fill="#1DCE75" p-id="2456"></path><path d="M443.8528 596.992c0 94.6176 91.7504 171.3152 204.8 171.3152a241.1008 241.1008 0 0 0 64.8192-8.7552l3.4816-1.024 74.0352 37.7344-19.8144-62.0032 1.8944-1.1776c48.8448-31.2832 80.384-80.5888 80.384-136.0896 0-94.5664-91.6992-171.264-204.8-171.264s-204.8 76.8-204.8 171.264zM691.2 538.0096a28.7744 28.7744 0 1 1 28.7744 27.8528 28.3136 28.3136 0 0 1-28.7744-27.8528z m-142.5408 0a28.7744 28.7744 0 1 1 28.7744 27.8528 28.3648 28.3648 0 0 1-28.7744-27.8528z m0 0" fill="#05C46D" p-id="2457"></path><path d="M648.704 425.728c-113.1008 0-204.8 76.8-204.8 171.264 0 53.8624 29.7984 101.9392 76.3392 133.12a451.6352 451.6352 0 0 0 290.1504-238.4384c-37.2736-40.0384-95.9488-65.9456-161.6896-65.9456z m-71.2704 140.1344a27.8528 27.8528 0 1 1 28.7744-27.8528 28.3648 28.3648 0 0 1-28.7744 27.8528z m142.5408 0a27.8528 27.8528 0 1 1 28.7744-27.8528 28.3136 28.3136 0 0 1-28.7744 27.8528z" fill="#1DCE75" p-id="2458"></path><path d="M451.0208 552.192A452.5056 452.5056 0 0 0 624.64 426.9568C540.8256 435.2 472.5248 485.632 451.0208 552.192z" fill="#35D895" p-id="2459"></path><path d="M411.9552 233.6768c-133.888 0-242.432 90.7776-242.432 202.752 0 57.9584 29.1328 110.2336 75.7248 147.2 12.032 0.9728 24.2176 1.4848 36.4544 1.4848a451.4304 451.4304 0 0 0 141.3632-22.6304c16.0256-89.0368 107.52-157.2864 218.3168-157.2864h0.6656c2.4576-3.2768 5.12-6.6048 7.3216-10.24-22.784-91.9552-120.4224-161.28-237.4144-161.28zM327.68 399.36a32.9728 32.9728 0 1 1 34.0992-32.9728A33.4848 33.4848 0 0 1 327.68 399.36z m168.96 0a32.9728 32.9728 0 1 1 33.9968-32.9728 33.536 33.536 0 0 1-34.304 32.9728z" fill="#35D895" p-id="2460"></path><path d="M521.1136 255.3856a280.3712 280.3712 0 0 0-109.1584-21.7088c-129.536 0-235.52 84.9408-242.0736 191.8464a448.8192 448.8192 0 0 0 151.296-26.5728 33.0752 33.0752 0 1 1 40.4992-32.3584 32.2048 32.2048 0 0 1-5.632 18.1248 453.0176 453.0176 0 0 0 165.0688-129.3312z" fill="#48E1AA" p-id="2461"></path></svg>