<?xml version="1.0" standalone="no"?><!DOCTYPE svg PUBLIC "-//W3C//DTD SVG 1.1//EN" "http://www.w3.org/Graphics/SVG/1.1/DTD/svg11.dtd"><svg t="1765977680395" class="icon" viewBox="0 0 1024 1024" version="1.1" xmlns="http://www.w3.org/2000/svg" p-id="2780" xmlns:xlink="http://www.w3.org/1999/xlink" width="200" height="200"><path d="M512.1024 513.9968m-450.816 0a450.816 450.816 0 1 0 901.632 0 450.816 450.816 0 1 0-901.632 0Z" fill="#FFF1DC" p-id="2781"></path><path d="M677.4272 632.576a28.5696 28.5696 0 0 1-17.1008-51.2 83.1488 83.1488 0 0 0 0-133.12 28.5696 28.5696 0 1 1 34.2016-45.7216 140.288 140.288 0 0 1-0.256 224.8704 28.3136 28.3136 0 0 1-16.8448 5.1712z" fill="#FC7032" p-id="2782"></path><path d="M757.248 704.1024A28.5696 28.5696 0 0 1 737.28 655.36a197.5296 197.5296 0 0 0 0-281.6 28.5696 28.5696 0 1 1 40.0384-40.96 254.6688 254.6688 0 0 1 0 362.9568 28.5184 28.5184 0 0 1-20.0704 8.3456zM543.9488 217.856L363.8784 329.2672H250.88a73.728 73.728 0 0 0-73.728 73.728v220.8256a73.728 73.728 0 0 0 73.728 73.728h114.7904l177.7152 113.1008a49.664 49.664 0 0 0 76.1344-41.8816V260.096a49.664 49.664 0 0 0-75.5712-42.24z m-183.3472 373.76a28.5696 28.5696 0 1 1-57.088 0V437.4528a28.5696 28.5696 0 1 1 57.088 0z" fill="#FC7032" p-id="2783"></path><path d="M777.0624 332.8a28.5696 28.5696 0 1 0-39.7824 40.96 195.5328 195.5328 0 0 1 54.6816 99.5328A399.36 399.36 0 0 0 819.2 387.1232 256.3584 256.3584 0 0 0 777.0624 332.8zM694.7328 402.0224a28.5696 28.5696 0 1 0-34.2528 45.7216 83.1488 83.1488 0 0 1 0 133.376 28.5184 28.5184 0 0 0 6.9632 49.5616 409.1904 409.1904 0 0 0 78.6432-79.3088 139.7248 139.7248 0 0 0-51.2-149.3504zM543.9488 217.856L363.8784 329.2672H250.88a73.728 73.728 0 0 0-73.728 73.728v220.8256a75.6736 75.6736 0 0 0 0.6144 9.1136 403.9168 403.9168 0 0 0 128.9216 64.6144h58.9824l23.7568 15.104c10.24 0.8192 20.992 1.3312 31.6416 1.3312A404.0192 404.0192 0 0 0 619.52 662.016V260.096a49.664 49.664 0 0 0-75.5712-42.24z m-183.3472 373.76a28.5696 28.5696 0 1 1-57.088 0V437.4528a28.5696 28.5696 0 1 1 57.088 0z" fill="#FF7C33" p-id="2784"></path><path d="M619.52 426.1888V260.096a49.664 49.664 0 0 0-75.776-42.24L363.8784 329.2672H250.88a73.728 73.728 0 0 0-73.728 73.728v144.5376a406.5792 406.5792 0 0 0 126.4128 22.2208V437.4528a28.5696 28.5696 0 1 1 57.088 0v129.2288A404.8896 404.8896 0 0 0 619.52 426.1888z" fill="#FF9552" p-id="2785"></path><path d="M566.528 210.5856a49.8688 49.8688 0 0 0-22.5792 7.2704L363.8784 329.2672H250.88a73.728 73.728 0 0 0-73.728 73.728V424.96c10.24 0.768 20.48 1.28 30.72 1.28a405.6576 405.6576 0 0 0 358.656-215.6544z" fill="#FFA56A" p-id="2786"></path></svg>