<?xml version="1.0" standalone="no"?><!DOCTYPE svg PUBLIC "-//W3C//DTD SVG 1.1//EN" "http://www.w3.org/Graphics/SVG/1.1/DTD/svg11.dtd"><svg t="1765977790846" class="icon" viewBox="0 0 1024 1024" version="1.1" xmlns="http://www.w3.org/2000/svg" p-id="2416" xmlns:xlink="http://www.w3.org/1999/xlink" width="200" height="200"><path d="M141.9264 391.8336H841.728v507.3408H141.9264z" fill="#FECC87" p-id="2417"></path><path d="M909.4656 317.1328l-93.4912-213.0432H166.8608L74.5984 316.0064l-0.6144 1.4336c-12.1344 31.744-13.4656 66.3552-3.6352 97.3824 22.8864 72.4992 89.3952 121.2416 165.4784 121.2416 49.6128 0 95.6416-20.8384 128-56.32 32.3584 35.4816 78.4384 56.32 128 56.32 49.6128 0 95.6416-20.8384 128-56.32 32.3584 35.4816 78.4384 56.32 128 56.32 76.032 0 142.4896-48.64 165.4272-121.088 9.8816-31.1808 8.5504-65.8944-3.7888-97.8432z" fill="#FF7F00" p-id="2418"></path><path d="M308.48 274.2272h366.6432v71.68H308.48z" fill="#FFFFFF" p-id="2419"></path><path d="M774.2464 753.8688m-182.4256 0a182.4256 182.4256 0 1 0 364.8512 0 182.4256 182.4256 0 1 0-364.8512 0Z" fill="#FF7F00" p-id="2420"></path><path d="M882.4832 718.0288h-72.3968V645.632h-71.68v72.3968h-72.3968v71.68h72.3968v72.3968h71.68v-72.3968h72.3968z" fill="#FFFFFF" p-id="2421"></path></svg>