<?xml version="1.0" standalone="no"?><!DOCTYPE svg PUBLIC "-//W3C//DTD SVG 1.1//EN" "http://www.w3.org/Graphics/SVG/1.1/DTD/svg11.dtd"><svg t="1765977703843" class="icon" viewBox="0 0 1024 1024" version="1.1" xmlns="http://www.w3.org/2000/svg" p-id="3741" xmlns:xlink="http://www.w3.org/1999/xlink" width="200" height="200"><path d="M513.7408 512.3584m-450.816 0a450.816 450.816 0 1 0 901.632 0 450.816 450.816 0 1 0-901.632 0Z" fill="#FFE1E9" p-id="3742"></path><path d="M232.9088 732.1088m26.7264 0l421.2224 0q26.7264 0 26.7264 26.7264l0 3.3792q0 26.7264-26.7264 26.7264l-421.2224 0q-26.7264 0-26.7264-26.7264l0-3.3792q0-26.7264 26.7264-26.7264Z" fill="#FF3369" p-id="3743"></path><path d="M829.44 498.176l-225.28-87.7568 29.3376-75.3664a32.768 32.768 0 0 0 22.016-61.44L400.9472 174.4384a32.8192 32.8192 0 0 0-23.7568 61.44l1.1776 0.4608L271.36 511.488a32.768 32.768 0 0 0-22.4256 61.44l254.1568 98.8672a32.768 32.768 0 0 0 23.7568-61.1328l-0.768-0.3072 30.1568-77.4656 225.28 87.7568a61.9008 61.9008 0 0 0 80.1792-35.2768l2.816-7.2192A61.952 61.952 0 0 0 829.44 498.176zM436.992 340.992l-49.8688 131.7376a25.9584 25.9584 0 0 1-24.7296 16.7424 27.2896 27.2896 0 0 1-8.6528-1.6896 25.856 25.856 0 0 1-15.0016-33.3312L388.608 322.56a25.856 25.856 0 0 1 48.384 18.3296z" fill="#FF3369" p-id="3744"></path><path d="M566.1696 732.16H259.6352a26.7264 26.7264 0 0 0-26.7264 26.7264v3.328a26.7264 26.7264 0 0 0 26.7264 26.7264h189.8496A449.1776 449.1776 0 0 0 566.1696 732.16zM700.5184 589.2608a447.1296 447.1296 0 0 0 49.92-121.7536l-146.688-57.088 29.3376-75.3664a32.768 32.768 0 0 0 22.016-61.44L400.9472 174.4384a32.8192 32.8192 0 0 0-23.7568 61.44l1.1776 0.4608L271.36 511.488a32.768 32.768 0 0 0-22.4256 61.44l254.1568 98.8672a32.768 32.768 0 0 0 23.7568-61.1328l-0.768-0.3072 30.1568-77.4656zM436.992 340.992L387.072 472.7296a25.6 25.6 0 0 1-24.6784 16.7424 27.2896 27.2896 0 0 1-8.6528-1.6896 25.856 25.856 0 0 1-15.0016-33.3312L388.608 322.56a25.856 25.856 0 0 1 48.384 18.3296z" fill="#FF4D7C" p-id="3745"></path><path d="M635.3408 265.6256L400.9472 174.4384a32.8192 32.8192 0 0 0-23.7568 61.44l1.1776 0.4608L271.36 511.488a32.768 32.768 0 0 0-22.4256 61.44l111.4112 43.3664a451.3792 451.3792 0 0 0 274.9952-350.6688zM436.992 340.992L387.072 472.7296a25.6 25.6 0 0 1-24.6784 16.7424 27.2896 27.2896 0 0 1-8.6528-1.6896 25.856 25.856 0 0 1-15.0016-33.3312L388.608 322.56a25.856 25.856 0 0 1 48.384 18.3296z" fill="#FF5F89" p-id="3746"></path><path d="M400.9472 174.4384a32.8192 32.8192 0 0 0-23.7568 61.44l1.1776 0.4608-75.0592 192.6144a449.7408 449.7408 0 0 0 61.44-43.1104L388.608 322.56a25.6 25.6 0 0 1 44.032-7.2704 447.6928 447.6928 0 0 0 60.672-104.9088z" fill="#FF7196" p-id="3747"></path></svg>