<?xml version="1.0" standalone="no"?><!DOCTYPE svg PUBLIC "-//W3C//DTD SVG 1.1//EN" "http://www.w3.org/Graphics/SVG/1.1/DTD/svg11.dtd"><svg t="1765977677249" class="icon" viewBox="0 0 1024 1024" version="1.1" xmlns="http://www.w3.org/2000/svg" p-id="2617" xmlns:xlink="http://www.w3.org/1999/xlink" width="200" height="200"><path d="M513.4848 513.6896m-450.816 0a450.816 450.816 0 1 0 901.632 0 450.816 450.816 0 1 0-901.632 0Z" fill="#FFE3DB" p-id="2618"></path><path d="M710.0928 500.5824A64.1024 64.1024 0 1 0 640 564.3776H651.6224a64.1536 64.1536 0 0 0 58.4704-63.7952z" fill="#FC4956" p-id="2619"></path><path d="M730.4704 253.0304H296.448a96.3072 96.3072 0 0 0-96.3072 96.3584v328.6016a96.3072 96.3072 0 0 0 96.3072 96.3072h434.0224a95.7952 95.7952 0 0 0 58.5216-19.8144 30.4128 30.4128 0 0 1-41.7792-28.2112 101.376 101.376 0 0 0-94.4128-100.9664H639.232a101.376 101.376 0 0 0-94.4128 100.9664 30.464 30.464 0 0 1-60.8768 0 162.048 162.048 0 0 1 74.8032-136.448 124.928 124.928 0 1 1 174.5408 0 161.9968 161.9968 0 0 1 74.752 136.448 30.72 30.72 0 0 1-2.4064 11.9296 96 96 0 0 0 21.1456-60.2112V349.3888a96.3072 96.3072 0 0 0-96.3072-96.3584z m-281.6 354.4576H301.1584a30.4128 30.4128 0 1 1 0-60.8256h147.8144a30.4128 30.4128 0 1 1 0 60.8256z m0-134.2464H301.1584a30.464 30.464 0 0 1 0-60.8768h147.8144a30.464 30.464 0 0 1 0 60.8768z" fill="#F23D4F" p-id="2620"></path><path d="M645.9904 625.5104h-6.7584a101.3248 101.3248 0 0 0-93.2864 86.6816 449.024 449.024 0 0 0 150.0672-73.5744 101.2224 101.2224 0 0 0-43.2128-13.1072c-2.2528-0.0512-4.5056 0-6.8096 0z" fill="#FC4956" p-id="2621"></path><path d="M826.7776 349.3888a96.3072 96.3072 0 0 0-96.3072-96.3584H296.448a96.3072 96.3072 0 0 0-96.3072 96.3584v318.1056a448.4608 448.4608 0 0 0 225.8944 60.6208 451.8912 451.8912 0 0 0 58.0096-3.6864 161.9968 161.9968 0 0 1 74.7008-134.6048 124.928 124.928 0 1 1 174.5408 0c3.584 2.304 7.0144 4.8128 10.24 7.3728a452.1984 452.1984 0 0 0 83.0464-113.2032z m-377.8048 258.0992H301.1584a30.4128 30.4128 0 1 1 0-60.8256h147.8144a30.4128 30.4128 0 1 1 0 60.8256z m0-134.2464H301.1584a30.464 30.464 0 0 1 0-60.8768h147.8144a30.464 30.464 0 0 1 0 60.8768z" fill="#FC4956" p-id="2622"></path><path d="M272.4864 566.9888a30.4128 30.4128 0 0 1 28.672-20.48H440.32a448.0512 448.0512 0 0 0 81.3568-35.2768c-0.3072-3.5328-0.4608-7.168-0.4608-10.8032a125.0304 125.0304 0 0 1 124.8768-124.928 128.3584 128.3584 0 0 1 24.4736 2.4064 448.5632 448.5632 0 0 0 62.208-124.928H296.448a96.3072 96.3072 0 0 0-96.3072 96.4096v206.8992a448 448 0 0 0 72.3456 10.7008z m28.672-154.624h147.8144a30.464 30.464 0 0 1 0 60.8768H301.1584a30.464 30.464 0 0 1 0-60.8768z" fill="#FF5C64" p-id="2623"></path><path d="M529.9712 253.0304H296.448a96.3072 96.3072 0 0 0-96.3072 96.3584v58.9824a449.9456 449.9456 0 0 0 329.8304-155.3408z" fill="#FF716E" p-id="2624"></path></svg>