<?xml version="1.0" standalone="no"?><!DOCTYPE svg PUBLIC "-//W3C//DTD SVG 1.1//EN" "http://www.w3.org/Graphics/SVG/1.1/DTD/svg11.dtd"><svg t="1765977823067" class="icon" viewBox="0 0 1024 1024" version="1.1" xmlns="http://www.w3.org/2000/svg" p-id="3368" xmlns:xlink="http://www.w3.org/1999/xlink" width="200" height="200"><path d="M851.2512 415.3344l-196.7616-179.7632V131.5328h196.7616z" fill="#97D8FF" p-id="3369"></path><path d="M630.1696 426.9568c10.1888 0 18.5344-8.4992 18.5344-18.8928s-8.2944-18.8928-18.5344-18.8928-18.4832 8.4992-18.4832 18.8928 8.2944 18.8928 18.4832 18.8928z" fill="#00A0FE" p-id="3370"></path><path d="M554.1376 79.0016H467.1488l-414.72 391.168v89.344h85.5552v377.5488h744.3456v-377.5488h85.5552v-80.896l-413.7472-399.616zM409.2928 746.7008l-148.992 88.4736-36.608-61.6448 133.4272-79.2064 31.232-52.1216 61.4912 36.864-40.5504 67.6352z m130.9184 74.2912L479.1808 783.36l53.4528-86.6304-146.5344-75.0592 125.0816-108.3392-41.216-29.3888-79.3088 24.8832-21.4528-68.4032 113.3056-35.5328 70.912 50.5856c-8.4992-13.824-13.4656-30.0032-13.4656-47.4112 0-49.92 40.448-90.5728 90.1632-90.5728s90.2144 40.6528 90.2144 90.5728-40.448 90.5728-90.2144 90.5728c-6.5536 0-12.9536-0.768-19.0976-2.0992l15.9232 11.3664-113.664 98.4576 121.0368 62.0032-94.1056 152.6272z m117.2992-205.2608l-57.0368-45.1584 44.4928-56.2176 9.3184 7.3728 54.8864-49.92 48.2304 53.0432-99.8912 90.88z" fill="#00A0FE" p-id="3371"></path></svg>