<?xml version="1.0" standalone="no"?><!DOCTYPE svg PUBLIC "-//W3C//DTD SVG 1.1//EN" "http://www.w3.org/Graphics/SVG/1.1/DTD/svg11.dtd"><svg t="1765977718245" class="icon" viewBox="0 0 1024 1024" version="1.1" xmlns="http://www.w3.org/2000/svg" p-id="4388" xmlns:xlink="http://www.w3.org/1999/xlink" width="200" height="200"><path d="M511.744 513.6384m-450.816 0a450.816 450.816 0 1 0 901.632 0 450.816 450.816 0 1 0-901.632 0Z" fill="#FFF1DC" p-id="4389"></path><path d="M738.56 248.7296h-454.144a87.04 87.04 0 0 0-87.04 87.04v325.3248a87.04 87.04 0 0 0 87.04 87.04h102.4a36.1984 36.1984 0 0 1 25.9072 10.9056l67.584 69.2224a36.1984 36.1984 0 0 0 51.2 0.5632l71.68-70.3488a35.84 35.84 0 0 1 25.6-10.24h109.7728a87.04 87.04 0 0 0 87.04-87.04V335.7184a87.04 87.04 0 0 0-87.04-86.9888z m-197.5808 424.4992a32.7168 32.7168 0 0 1-65.4336 0V650.24a32.7168 32.7168 0 0 1 65.4336 0z m2.1504-120.6784c-1.2288 0.4096-2.2016 1.28-2.2016 1.9456v1.3312a32.7168 32.7168 0 0 1-65.4336 0v-1.3312a67.6864 67.6864 0 0 1 47.2064-64.1024 46.08 46.08 0 0 0 31.4368-49.3568 46.6944 46.6944 0 0 0-40.5504-40.5504 46.08 46.08 0 0 0-51.6096 46.08 32.7168 32.7168 0 1 1-65.4336 0 111.6672 111.6672 0 1 1 146.5856 106.0864z" fill="#FC7032" p-id="4390"></path><path d="M738.56 248.7296h-454.144a87.04 87.04 0 0 0-87.04 87.04v325.3248a87.04 87.04 0 0 0 87.04 87.04h102.4a36.1472 36.1472 0 0 1 23.4496 8.6016c222.2592-27.8016 404.48-217.4464 404.48-447.2832q0-7.8336-0.3072-15.6672a87.04 87.04 0 0 0-75.8784-45.056z m-197.5808 424.4992a32.7168 32.7168 0 0 1-65.4336 0V650.24a32.7168 32.7168 0 0 1 65.4336 0z m2.1504-120.6784c-1.2288 0.4096-2.2016 1.28-2.2016 1.9456v1.3312a32.7168 32.7168 0 0 1-65.4336 0v-1.3312a67.6864 67.6864 0 0 1 47.2064-64.1024 46.08 46.08 0 0 0 31.4368-49.3568 46.6944 46.6944 0 0 0-40.5504-40.5504 46.08 46.08 0 0 0-51.6096 46.08 32.7168 32.7168 0 1 1-65.4336 0 111.6672 111.6672 0 1 1 146.5856 106.0864z" fill="#FF7C33" p-id="4391"></path><path d="M284.416 248.7296a87.04 87.04 0 0 0-87.04 87.04V599.04c9.2672 0.5632 18.6368 0.8704 28.0576 0.8704A465.2032 465.2032 0 0 0 483.9424 522.24a68.864 68.864 0 0 1 38.7584-31.7952c1.6384-0.5632 3.2768-1.2288 5.12-1.9456q10.9568-9.5744 21.3504-19.9168a46.3872 46.3872 0 0 0-35.328-68.0448 46.08 46.08 0 0 0-51.6096 46.08 32.7168 32.7168 0 1 1-65.4336 0 111.616 111.616 0 0 1 211.3024-50.3296 448.4096 448.4096 0 0 0 62.5664-147.4048z" fill="#FF9552" p-id="4392"></path><path d="M197.4272 335.7184v96.7168C314.3168 410.0608 420.2496 342.528 486.4 248.7296H284.416a87.04 87.04 0 0 0-86.9888 86.9888z" fill="#FFA56A" p-id="4393"></path></svg>