<?xml version="1.0" standalone="no"?><!DOCTYPE svg PUBLIC "-//W3C//DTD SVG 1.1//EN" "http://www.w3.org/Graphics/SVG/1.1/DTD/svg11.dtd"><svg t="1765977694198" class="icon" viewBox="0 0 1024 1024" version="1.1" xmlns="http://www.w3.org/2000/svg" p-id="3421" xmlns:xlink="http://www.w3.org/1999/xlink" width="200" height="200"><path d="M508.3648 506.3168m-450.816 0a450.816 450.816 0 1 0 901.632 0 450.816 450.816 0 1 0-901.632 0Z" fill="#FFF1DC" p-id="3422"></path><path d="M687.9744 203.008H326.656a72.6528 72.6528 0 0 0-72.6528 72.6528v469.6064a51.2 51.2 0 0 0 72.8576 46.4896l165.5296-76.8a36.4032 36.4032 0 0 1 30.72 0l164.608 76.8a51.2 51.2 0 0 0 72.96-46.5408V275.6608a72.704 72.704 0 0 0-72.704-72.6528zM588.8 463.2576h-45.312v45.3632a36.2496 36.2496 0 0 1-72.448 0v-45.3632h-45.2608a36.1984 36.1984 0 1 1 0-72.3968H471.04v-45.3632a36.2496 36.2496 0 0 1 72.448 0v45.3632H588.8a36.1984 36.1984 0 1 1 0 72.3968z" fill="#FC7032" p-id="3423"></path><path d="M760.6784 422.656V275.6608a72.704 72.704 0 0 0-72.704-72.6528H326.656a72.6528 72.6528 0 0 0-72.6528 72.6528v470.6816a457.728 457.728 0 0 0 202.496-14.6944l35.84-16.6912a36.9152 36.9152 0 0 1 17.152-3.2768 456.6528 456.6528 0 0 0 251.1872-289.024zM588.8 463.2576h-45.312v45.3632a36.2496 36.2496 0 0 1-72.448 0v-45.3632h-45.2608a36.1984 36.1984 0 1 1 0-72.3968H471.04v-45.3632a36.2496 36.2496 0 0 1 72.448 0v45.3632H588.8a36.1984 36.1984 0 1 1 0 72.3968z" fill="#FF7C33" p-id="3424"></path><path d="M471.04 499.0976v-35.84h-43.7248a37.2224 37.2224 0 0 1-37.7344-35.072 36.1984 36.1984 0 0 1 36.1984-37.3248H471.04v-43.8272a37.2736 37.2736 0 0 1 35.1232-37.7344 36.1984 36.1984 0 0 1 37.3248 36.1984v45.3632h31.232a453.4272 453.4272 0 0 0 73.984-187.8528H326.656a72.6528 72.6528 0 0 0-72.6528 72.6528v310.6816A452.9152 452.9152 0 0 0 471.04 499.0976z" fill="#FF9552" p-id="3425"></path><path d="M477.0304 203.008H326.656a72.6528 72.6528 0 0 0-72.6528 72.6528v119.9616a457.6256 457.6256 0 0 0 223.0272-192.6144z" fill="#FFA56A" p-id="3426"></path></svg>