<?xml version="1.0" standalone="no"?><!DOCTYPE svg PUBLIC "-//W3C//DTD SVG 1.1//EN" "http://www.w3.org/Graphics/SVG/1.1/DTD/svg11.dtd"><svg t="1765977731164" class="icon" viewBox="0 0 1024 1024" version="1.1" xmlns="http://www.w3.org/2000/svg" p-id="5033" xmlns:xlink="http://www.w3.org/1999/xlink" width="200" height="200"><path d="M515.6352 513.6384m-450.816 0a450.816 450.816 0 1 0 901.632 0 450.816 450.816 0 1 0-901.632 0Z" fill="#FBE1FF" p-id="5034"></path><path d="M240.7424 246.4768m36.9152 0l178.1248 0q36.9152 0 36.9152 36.9152l0 171.776q0 36.9152-36.9152 36.9152l-178.1248 0q-36.9152 0-36.9152-36.9152l0-171.776q0-36.9152 36.9152-36.9152Z" fill="#CA6EE0" p-id="5035"></path><path d="M239.7696 536.5248m36.9152 0l180.0192 0q36.9152 0 36.9152 36.9152l0 173.6192q0 36.9152-36.9152 36.9152l-180.0192 0q-36.9152 0-36.9152-36.9152l0-173.6192q0-36.9152 36.9152-36.9152Z" fill="#BD50D3" p-id="5036"></path><path d="M540.5696 243.8656m36.9152 0l183.5008 0q36.9152 0 36.9152 36.9152l0 176.9984q0 36.9152-36.9152 36.9152l-183.5008 0q-36.9152 0-36.9152-36.9152l0-176.9984q0-36.9152 36.9152-36.9152Z" fill="#C65EDB" p-id="5037"></path><path d="M581.9904 781.568a26.7776 26.7776 0 0 1-26.7776-26.7776v-188.416a26.7776 26.7776 0 1 1 53.504 0v188.416a26.7776 26.7776 0 0 1-26.7264 26.7776zM764.3136 781.568a26.7776 26.7776 0 0 1-26.7776-26.7776v-188.416a26.7776 26.7776 0 1 1 53.504 0v188.416a26.7776 26.7776 0 0 1-26.7264 26.7776zM673.1264 779.4176a26.7776 26.7776 0 0 1-26.7264-26.7776v-77.2096a26.7776 26.7776 0 1 1 53.504 0V752.64a26.7776 26.7776 0 0 1-26.7776 26.7776z" fill="#BD50D3" p-id="5038"></path><path d="M673.1264 625.7152a26.7264 26.7264 0 0 1-26.7264-26.7264v-34.56a26.7776 26.7776 0 0 1 53.504 0V599.04a26.7264 26.7264 0 0 1-26.7776 26.6752zM766.3616 539.8016h-2.048a26.7776 26.7776 0 0 0-26.7776 26.7776v10.24a440.32 440.32 0 0 0 28.8256-37.0176zM581.9904 539.5968a26.7776 26.7776 0 0 0-26.7776 26.7776v136.4992a439.3984 439.3984 0 0 0 53.504-23.808v-112.64a26.7776 26.7776 0 0 0-26.7264-26.8288zM456.704 536.5248H276.48a37.0176 37.0176 0 0 0-36.7104 36.9152v125.44a442.5216 442.5216 0 0 0 162.9184 30.72 446.8224 446.8224 0 0 0 90.9312-9.3696V573.44a36.9664 36.9664 0 0 0-36.9152-36.9152z" fill="#C65EDB" p-id="5039"></path><path d="M281.6 572.5184a440.8832 440.8832 0 0 0 175.0016-35.84H276.48a36.9152 36.9152 0 0 0-36.7616 33.9968c13.8752 1.1264 27.7504 1.8432 41.8816 1.8432zM709.5808 243.8656h-132.096a36.9664 36.9664 0 0 0-36.9152 36.9152V457.728a36.864 36.864 0 0 0 9.1648 24.32 443.4432 443.4432 0 0 0 159.8464-238.1824z" fill="#CA6EE0" p-id="5040"></path><path d="M492.0832 276.8896A36.9664 36.9664 0 0 0 455.68 246.4768H277.6576A36.9152 36.9152 0 0 0 240.64 283.392v126.6688a441.9072 441.9072 0 0 0 251.4432-133.1712z" fill="#D786EA" p-id="5041"></path></svg>