<?xml version="1.0" standalone="no"?><!DOCTYPE svg PUBLIC "-//W3C//DTD SVG 1.1//EN" "http://www.w3.org/Graphics/SVG/1.1/DTD/svg11.dtd"><svg t="1765977714785" class="icon" viewBox="0 0 1024 1024" version="1.1" xmlns="http://www.w3.org/2000/svg" p-id="4227" xmlns:xlink="http://www.w3.org/1999/xlink" width="200" height="200"><path d="M510.3616 505.9584m-450.816 0a450.816 450.816 0 1 0 901.632 0 450.816 450.816 0 1 0-901.632 0Z" fill="#FFE3DB" p-id="4228"></path><path d="M826.7776 459.776a49.5104 49.5104 0 0 0-27.4432-84.4288l-142.2848-20.48a49.6128 49.6128 0 0 1-37.2736-27.1872l-63.6416-129.024a49.5104 49.5104 0 0 0-88.7808 0L403.712 327.68a49.6128 49.6128 0 0 1-37.2736 27.0848l-142.2848 20.48a49.5104 49.5104 0 0 0-27.4432 84.5312l102.9632 100.352a49.5104 49.5104 0 0 1 14.2336 44.032l-24.32 141.7216a49.5104 49.5104 0 0 0 71.68 52.1728l127.232-66.8672a49.5616 49.5616 0 0 1 46.08 0l127.232 66.8672a49.5104 49.5104 0 0 0 71.68-52.1728L709.5808 604.16a49.5104 49.5104 0 0 1 14.2336-43.8272z m-134.5024-8.9088a31.6928 31.6928 0 0 1-36.352 26.112l-74.9056-12.288a52.3264 52.3264 0 0 1-35.84-23.808l-38.656-61.7472a31.6928 31.6928 0 0 1 53.7088-33.5872l35.84 57.4976L666.1632 414.72a31.744 31.744 0 0 1 26.112 36.1472z" fill="#F23D4F" p-id="4229"></path><path d="M290.7648 738.9696a397.0048 397.0048 0 0 0 476.16-368.64l-109.6704-15.9232a49.6128 49.6128 0 0 1-37.4784-26.7264l-63.6416-129.024a49.5104 49.5104 0 0 0-88.7808 0L403.712 327.68a49.6128 49.6128 0 0 1-37.2736 27.0848l-142.2848 20.48a49.5104 49.5104 0 0 0-27.4432 84.5312l102.9632 100.352a49.5104 49.5104 0 0 1 14.2336 44.032z m225.8432-403.456a31.5904 31.5904 0 0 1 43.6224 10.24l35.84 57.4976L666.1632 414.72a31.6928 31.6928 0 0 1-10.24 62.5152l-74.9056-12.288a52.3264 52.3264 0 0 1-35.84-23.808l-38.656-62.0032a31.6416 31.6416 0 0 1 10.0864-43.6224z" fill="#FC4956" p-id="4230"></path><path d="M568.7296 460.8a52.2752 52.2752 0 0 1-23.552-20.1216l-38.656-61.5424a31.6928 31.6928 0 0 1 53.7088-33.5872l35.84 57.4976 10.9568 1.792a394.24 394.24 0 0 0 27.8528-59.392 48.896 48.896 0 0 1-15.104-17.7664l-63.6416-129.024a49.5104 49.5104 0 0 0-88.7808 0L403.712 327.68a49.6128 49.6128 0 0 1-37.2736 27.0848l-142.2848 20.48a49.5104 49.5104 0 0 0-27.4432 84.5312l102.9632 100.352a49.5616 49.5616 0 0 1 14.3872 42.496A396.2368 396.2368 0 0 0 568.7296 460.8z" fill="#FF5C64" p-id="4231"></path><path d="M542.72 181.7088a49.6128 49.6128 0 0 0-75.264 16.9472L403.712 327.68a49.6128 49.6128 0 0 1-37.2736 27.0848l-142.2848 20.48a49.5104 49.5104 0 0 0-27.4432 84.5312l4.1472 4.0448A396.9024 396.9024 0 0 0 542.72 181.7088z" fill="#FF716E" p-id="4232"></path></svg>