<?xml version="1.0" standalone="no"?><!DOCTYPE svg PUBLIC "-//W3C//DTD SVG 1.1//EN" "http://www.w3.org/Graphics/SVG/1.1/DTD/svg11.dtd"><svg t="1765977700669" class="icon" viewBox="0 0 1024 1024" version="1.1" xmlns="http://www.w3.org/2000/svg" p-id="3582" xmlns:xlink="http://www.w3.org/1999/xlink" width="200" height="200"><path d="M514.9184 513.6384m-450.816 0a450.816 450.816 0 1 0 901.632 0 450.816 450.816 0 1 0-901.632 0Z" fill="#E9ECFF" p-id="3583"></path><path d="M739.4816 248.2688h-454.144a87.04 87.04 0 0 0-87.04 87.04V660.48a87.04 87.04 0 0 0 87.04 87.04h102.7072a36.1984 36.1984 0 0 1 25.6 10.9056L481.28 827.6992a36.1984 36.1984 0 0 0 51.2 0.5632L604.16 757.76a36.1472 36.1472 0 0 1 25.344-10.24h109.7728a87.04 87.04 0 0 0 87.04-87.04V335.3088a87.04 87.04 0 0 0-86.8352-87.04z m-386.5088 286.3616a45.2608 45.2608 0 1 1 45.2608-45.2608 45.2096 45.2096 0 0 1-45.2608 45.2608z m160.5632 0a45.2608 45.2608 0 1 1 45.2096-45.2608 45.2608 45.2608 0 0 1-45.2096 45.2608z m160.512 0a45.2608 45.2608 0 1 1 45.2608-45.2608 45.2096 45.2096 0 0 1-45.2608 45.2608z" fill="#6C6CEA" p-id="3584"></path><path d="M801.7408 330.2912a445.44 445.44 0 0 0-3.9424-59.392 86.3232 86.3232 0 0 0-58.3168-22.6304h-454.144a87.04 87.04 0 0 0-87.04 87.04V660.48a87.04 87.04 0 0 0 87.04 87.04h102.7072a36.1984 36.1984 0 0 1 25.6 10.9056l15.36 15.8208a450.9184 450.9184 0 0 0 372.736-443.9552z m-448.768 204.3392a45.2608 45.2608 0 1 1 45.2608-45.2608 45.2096 45.2096 0 0 1-45.2608 45.2608z m160.5632 0a45.2608 45.2608 0 1 1 45.2096-45.2608 45.2608 45.2608 0 0 1-45.2096 45.2608z m115.3024-45.2608a45.2608 45.2608 0 1 1 45.2096 45.2608 45.2096 45.2096 0 0 1-45.2096-45.2608z" fill="#757BF2" p-id="3585"></path><path d="M198.3488 335.3088v284.7232c9.6768 0.6144 19.4048 0.9728 29.2352 0.9728a448.5632 448.5632 0 0 0 269.6192-89.4976 45.2096 45.2096 0 1 1 60.0064-53.76 449.4336 449.4336 0 0 0 114.432-229.4784H285.3376a87.04 87.04 0 0 0-86.9888 87.04z m154.624 108.8512a45.2608 45.2608 0 1 1-45.2096 45.2096 45.2096 45.2096 0 0 1 45.2096-45.2096z" fill="#8486F8" p-id="3586"></path><path d="M198.3488 335.3088V453.632a451.4816 451.4816 0 0 0 299.008-205.3632H285.3376a87.04 87.04 0 0 0-86.9888 87.04z" fill="#8D92F8" p-id="3587"></path></svg>