<?xml version="1.0" standalone="no"?><!DOCTYPE svg PUBLIC "-//W3C//DTD SVG 1.1//EN" "http://www.w3.org/Graphics/SVG/1.1/DTD/svg11.dtd"><svg t="1765977661755" class="icon" viewBox="0 0 1024 1024" version="1.1" xmlns="http://www.w3.org/2000/svg" p-id="1971" xmlns:xlink="http://www.w3.org/1999/xlink" width="200" height="200"><path d="M512.8704 513.9968m-450.816 0a450.816 450.816 0 1 0 901.632 0 450.816 450.816 0 1 0-901.632 0Z" fill="#E9ECFF" p-id="1972"></path><path d="M694.528 229.888H330.5984a111.9232 111.9232 0 0 0-111.872 111.9232v337.4592a111.872 111.872 0 0 0 111.872 111.9232h363.9296a111.872 111.872 0 0 0 111.872-111.9232V341.8112a111.9232 111.9232 0 0 0-111.872-111.9232z m-11.264 264.3456h-123.2896v118.3232a26.5216 26.5216 0 0 1-26.5216 26.5216H387.7888V665.6a26.5216 26.5216 0 1 1-53.0432 0v-116.992a26.5216 26.5216 0 1 1 53.0432 0v37.4272H506.88V343.04a26.5216 26.5216 0 0 1 53.0432 0v98.304h123.2896a26.5216 26.5216 0 1 1 0 53.0432z" fill="#6C6CEA" p-id="1973"></path><path d="M806.4 459.6224v-117.76a111.9232 111.9232 0 0 0-111.872-111.9744H330.5984a111.9232 111.9232 0 0 0-111.872 111.9232v337.4592a111.0016 111.0016 0 0 0 12.1344 50.5344A458.9568 458.9568 0 0 0 806.4 459.6224zM334.7456 665.6v-116.992a26.5216 26.5216 0 1 1 53.0432 0v37.4272H506.88V343.04a26.5216 26.5216 0 0 1 53.0432 0v98.304h123.2896a26.5216 26.5216 0 1 1 0 53.0432h-123.2384v118.3232a26.5216 26.5216 0 0 1-26.5216 26.5216H387.7888V665.6a26.5216 26.5216 0 1 1-53.0432 0z" fill="#757BF2" p-id="1974"></path><path d="M330.5984 229.888a111.9232 111.9232 0 0 0-111.872 111.9232v248.2176q16.896 1.2288 34.2016 1.2288a458.3424 458.3424 0 0 0 81.92-7.2704v-35.3792a26.5216 26.5216 0 1 1 53.0432 0v22.4768A455.9872 455.9872 0 0 0 506.88 514.5088V343.04a26.5216 26.5216 0 0 1 53.0432 0v98.304h32.1536A457.1136 457.1136 0 0 0 700.8768 230.4c-2.0992 0-4.1984-0.3072-6.3488-0.3072z" fill="#8486F8" p-id="1975"></path><path d="M515.7376 229.888H330.5984a111.9232 111.9232 0 0 0-111.872 111.9232v80.128a458.1888 458.1888 0 0 0 297.0112-192.0512z" fill="#8D92F8" p-id="1976"></path></svg>