<?xml version="1.0" standalone="no"?><!DOCTYPE svg PUBLIC "-//W3C//DTD SVG 1.1//EN" "http://www.w3.org/Graphics/SVG/1.1/DTD/svg11.dtd"><svg t="1765977635382" class="icon" viewBox="0 0 1024 1024" version="1.1" xmlns="http://www.w3.org/2000/svg" p-id="1246" xmlns:xlink="http://www.w3.org/1999/xlink" width="200" height="200"><path d="M509.0816 511.488m-450.816 0a450.816 450.816 0 1 0 901.632 0 450.816 450.816 0 1 0-901.632 0Z" fill="#FFF1DC" p-id="1247"></path><path d="M490.9568 174.08a294.9632 294.9632 0 1 0 294.9632 295.168A294.9632 294.9632 0 0 0 490.9568 174.08z m178.3296 260.1984a29.0304 29.0304 0 0 1-10.24 1.8944 29.4912 29.4912 0 0 1-27.648-19.2512 151.1424 151.1424 0 0 0-92.5696-89.8048A29.4912 29.4912 0 1 1 557.6192 271.36a207.7184 207.7184 0 0 1 129.024 125.1328 29.4912 29.4912 0 0 1-17.3568 37.9904z" fill="#FC7032" p-id="1248"></path><path d="M751.9744 839.68a29.3888 29.3888 0 0 1-22.6304-10.5472L670.72 759.2448a29.4912 29.4912 0 0 1 45.2096-37.9392l58.5216 69.6832a29.5424 29.5424 0 0 1-22.5792 48.4864z" fill="#FC7032" p-id="1249"></path><path d="M763.7504 357.0688a294.9632 294.9632 0 1 0-494.5408 306.6368 407.4496 407.4496 0 0 0 100.7104 12.5952 401.0496 401.0496 0 0 0 393.8304-319.232z m-243.5072-67.1232a29.4912 29.4912 0 0 1 37.376-18.5344 207.7184 207.7184 0 0 1 129.024 125.1328 29.4912 29.4912 0 0 1-17.3568 37.9392 29.0304 29.0304 0 0 1-10.24 1.8944 29.4912 29.4912 0 0 1-27.648-19.2512 151.1424 151.1424 0 0 0-92.5696-89.8048 29.4912 29.4912 0 0 1-18.5856-37.376z" fill="#FF7C33" p-id="1250"></path><path d="M195.9424 469.248a295.8848 295.8848 0 0 0 6.4512 61.44 403.5072 403.5072 0 0 0 390.3488-170.9568 149.9136 149.9136 0 0 0-53.9648-32.3584A29.4912 29.4912 0 1 1 557.6192 271.36a208.3328 208.3328 0 0 1 65.28 35.84 395.3664 395.3664 0 0 0 29.44-85.0944 294.9632 294.9632 0 0 0-456.3968 247.1424z" fill="#FF9552" p-id="1251"></path><path d="M206.5408 390.8608A401.92 401.92 0 0 0 517.12 175.5136c-8.704-0.768-17.4592-1.2288-26.3168-1.2288a295.1168 295.1168 0 0 0-284.2624 216.576z" fill="#FFA56A" p-id="1252"></path></svg>