<?xml version="1.0" standalone="no"?><!DOCTYPE svg PUBLIC "-//W3C//DTD SVG 1.1//EN" "http://www.w3.org/Graphics/SVG/1.1/DTD/svg11.dtd"><svg t="1765977687207" class="icon" viewBox="0 0 1024 1024" version="1.1" xmlns="http://www.w3.org/2000/svg" p-id="3101" xmlns:xlink="http://www.w3.org/1999/xlink" width="200" height="200"><path d="M511.6416 511.488m-450.816 0a450.816 450.816 0 1 0 901.632 0 450.816 450.816 0 1 0-901.632 0Z" fill="#E9F4FF" p-id="3102"></path><path d="M780.4928 734.6176h-30.2592v-414.208a30.72 30.72 0 0 0-30.72-30.72H578.56v-56.32a30.72 30.72 0 0 0-30.72-30.72H306.5856a30.72 30.72 0 0 0-30.72 30.72v501.2992h-23.0912a26.5728 26.5728 0 0 0 0 53.0944h527.7184a26.5728 26.5728 0 1 0 0-53.0944zM409.9584 682.496h-66.56v-53.0432h66.56z m0-86.528h-66.56V542.72h66.56z m0-87.04h-66.56V456.1408h66.56z m0-86.4768h-66.56V369.6128h66.56z m0-87.6544h-66.56V282.0096h66.56zM510.976 682.496H450.1504v-53.0432H510.976z m0-86.528H450.1504V542.72H510.976z m0-87.04H450.1504V456.1408H510.976z m0-86.4768H450.1504V369.6128H510.976z m0-87.6544H450.1504V282.0096H510.976zM688.5888 680.96h-58.4192v-53.1968h58.4192z m0-87.04h-58.4192v-52.9408h58.4192z m0-86.4768h-58.4192V454.4512h58.4192z m0-87.6544h-58.4192V366.848h58.4192z" fill="#2595E8" p-id="3103"></path><path d="M719.6672 289.8944H578.56v-56.32a30.72 30.72 0 0 0-30.72-30.72H306.5856a30.72 30.72 0 0 0-30.72 30.72v491.0592a452.096 452.096 0 0 0 105.728 12.4928 449.024 449.024 0 0 0 248.4224-74.5984v-34.5088H675.84a453.2224 453.2224 0 0 0 74.4448-81.92v-225.28a30.72 30.72 0 0 0-30.6176-30.9248zM409.9584 682.496h-66.56v-53.0432h66.56z m0-86.528h-66.56V542.72h66.56z m0-87.04h-66.56V456.1408h66.56z m0-86.4768h-66.56V369.6128h66.56z m0-87.6544h-66.56V282.0096h66.56zM510.976 682.496H450.1504v-53.0432H510.976z m0-86.528H450.1504V542.72H510.976z m0-87.04H450.1504V456.1408H510.976z m0-86.4768H450.1504V369.6128H510.976z m0-87.6544H450.1504V282.0096H510.976zM688.5888 593.92h-58.4192v-52.9408h58.4192z m0-86.4768h-58.4192V454.4512h58.4192z m0-87.6544h-58.4192V366.848h58.4192z" fill="#3A9CED" p-id="3104"></path><path d="M510.976 456.1408v43.264a453.4272 453.4272 0 0 0 119.1936-118.3744v-14.1824h9.3696a455.936 455.936 0 0 0 38.9632-76.8H578.56v-56.32a30.72 30.72 0 0 0-30.72-30.72H306.5856a30.72 30.72 0 0 0-30.72 30.72v343.04a450.56 450.56 0 0 0 67.5328-7.7312v-25.6h66.56v7.68a446.0544 446.0544 0 0 0 85.9136-41.4208h-45.7216V456.1408z m-60.8256-174.08H510.976v52.992H450.1504z m0 87.6032H510.976v53.0432H450.1504z m-40.192 139.52h-66.56V456.1408h66.56z m0-86.4768h-66.56V369.6128h66.56z m0-87.6544h-66.56V282.0096h66.56z" fill="#59ADF8" p-id="3105"></path><path d="M343.552 371.2512v-1.6384h3.2768A449.024 449.024 0 0 0 404.48 335.0528H343.552V282.0096h66.56v49.152a450.56 450.56 0 0 0 40.192-32.9216v-16.2304h16.7424a452.3008 452.3008 0 0 0 61.9008-79.2576H306.5856a30.72 30.72 0 0 0-30.72 30.72v164.4032a446.1056 446.1056 0 0 0 67.6864-26.624z" fill="#6BC2FC" p-id="3106"></path></svg>