<?xml version="1.0" standalone="no"?><!DOCTYPE svg PUBLIC "-//W3C//DTD SVG 1.1//EN" "http://www.w3.org/Graphics/SVG/1.1/DTD/svg11.dtd"><svg t="1765977690536" class="icon" viewBox="0 0 1024 1024" version="1.1" xmlns="http://www.w3.org/2000/svg" p-id="3260" xmlns:xlink="http://www.w3.org/1999/xlink" width="200" height="200"><path d="M512.9728 508.0576m-450.816 0a450.816 450.816 0 1 0 901.632 0 450.816 450.816 0 1 0-901.632 0Z" fill="#E3FFF3" p-id="3261"></path><path d="M788.1728 346.4192h-193.1264V240.0256a39.5264 39.5264 0 0 0-39.5264-39.5264h-87.04a39.5264 39.5264 0 0 0-39.5264 39.5264v106.3936H239.6672a48.1792 48.1792 0 0 0-48.128 48.1792v81.1008a48.128 48.128 0 0 0 48.128 48.1792h548.5056a48.128 48.128 0 0 0 48.128-48.1792V394.5984a48.1792 48.1792 0 0 0-48.128-48.1792zM241.7152 564.9408v157.8496a87.5008 87.5008 0 0 0 87.552 87.552h15.36v-139.3152a30.72 30.72 0 0 1 61.7472 0v139.3152h73.9328v-139.3152a30.72 30.72 0 0 1 61.7984 0v139.3152h73.7792v-139.3152a30.72 30.72 0 1 1 61.7472 0v139.3152h21.9648a87.552 87.552 0 0 0 87.552-87.552v-157.8496z" fill="#05C46D" p-id="3262"></path><path d="M770.816 564.9408H241.7152v157.8496a87.04 87.04 0 0 0 9.216 38.9632 447.488 447.488 0 0 0 93.8496 18.5344v-109.2608a30.72 30.72 0 0 1 61.7472 0v110.5408a453.5296 453.5296 0 0 0 73.7792-9.5232v-101.0176a30.72 30.72 0 0 1 61.7984 0v82.9952a452.4032 452.4032 0 0 0 73.7792-35.328v-47.6672a30.72 30.72 0 1 1 61.7472 0v3.328a452.7104 452.7104 0 0 0 93.184-109.4144zM788.1728 346.4192h-193.1264V240.0256a39.5264 39.5264 0 0 0-39.5264-39.5264h-87.04a39.5264 39.5264 0 0 0-39.5264 39.5264v106.3936H239.6672a48.1792 48.1792 0 0 0-48.128 48.1792v81.1008a48.128 48.128 0 0 0 48.128 48.1792h553.3696A448.5632 448.5632 0 0 0 833.5872 378.88a48.2304 48.2304 0 0 0-45.4144-32.4608z" fill="#1DCE75" p-id="3263"></path><path d="M241.7152 621.5168c6.7072 0.3072 13.4144 0.4608 20.1728 0.4608A448.2048 448.2048 0 0 0 481.28 564.9408H241.7152zM595.0464 346.4192V240.0256a39.5264 39.5264 0 0 0-39.5264-39.5264h-87.04a39.5264 39.5264 0 0 0-39.5264 39.5264v106.3936H239.6672a48.1792 48.1792 0 0 0-48.128 48.1792v81.1008a48.128 48.128 0 0 0 48.128 48.1792H542.72a451.9936 451.9936 0 0 0 134.656-177.4592z" fill="#35D895" p-id="3264"></path><path d="M558.08 200.6016H468.6848a39.5264 39.5264 0 0 0-39.5264 39.5264v106.2912H239.6672a48.1792 48.1792 0 0 0-48.128 48.1792v65.792A450.9696 450.9696 0 0 0 558.08 200.6016z" fill="#48E1AA" p-id="3265"></path></svg>