<?xml version="1.0" standalone="no"?><!DOCTYPE svg PUBLIC "-//W3C//DTD SVG 1.1//EN" "http://www.w3.org/Graphics/SVG/1.1/DTD/svg11.dtd"><svg t="1765977710991" class="icon" viewBox="0 0 1024 1024" version="1.1" xmlns="http://www.w3.org/2000/svg" p-id="4066" xmlns:xlink="http://www.w3.org/1999/xlink" width="200" height="200"><path d="M513.28 513.6384m-450.816 0a450.816 450.816 0 1 0 901.632 0 450.816 450.816 0 1 0-901.632 0Z" fill="#FFE3DB" p-id="4067"></path><path d="M496.64 192.7168a309.8112 309.8112 0 0 0-6.5536 619.52v0.3072h217.856a22.6304 22.6304 0 0 0 22.6816-22.6304v-67.3792a23.0912 23.0912 0 0 1 5.8368-15.36A309.76 309.76 0 0 0 496.64 192.7168z m45.056 453.1712a28.7232 28.7232 0 1 1-57.4464 0v-17.7152a28.7232 28.7232 0 0 1 57.4464 0z m4.1472-104.1408a5.5296 5.5296 0 0 0-4.1984 4.7616v1.3312a28.7232 28.7232 0 0 1-57.4464 0v-1.28a62.6688 62.6688 0 0 1 43.7248-59.2896 47.872 47.872 0 1 0-62.8736-45.5168 28.7232 28.7232 0 1 1-57.3952 0 105.3184 105.3184 0 1 1 138.24 100.0448z" fill="#F23D4F" p-id="4068"></path><path d="M813.6704 501.2992A309.8112 309.8112 0 1 0 250.88 681.5744a451.0208 451.0208 0 0 0 562.7904-180.2752z m-272.2304 144.5888a28.7232 28.7232 0 1 1-57.4464 0v-17.7152a28.7232 28.7232 0 0 1 57.4464 0z m4.1472-104.1408a5.5296 5.5296 0 0 0-4.1984 4.7616v1.3312a28.7232 28.7232 0 0 1-57.4464 0v-1.28a62.6688 62.6688 0 0 1 43.7248-59.2896 47.872 47.872 0 1 0-62.8736-45.5168 28.7232 28.7232 0 1 1-57.3952 0 105.3184 105.3184 0 1 1 138.24 100.0448z" fill="#FC4956" p-id="4069"></path><path d="M496.64 192.7168a310.9888 310.9888 0 0 0-302.08 307.2 307.5584 307.5584 0 0 0 2.8672 44.7488 451.4304 451.4304 0 0 0 108.2368 13.1072 449.0752 449.0752 0 0 0 186.0608-40.0896 63.5904 63.5904 0 0 1 36.4544-30.72 47.872 47.872 0 1 0-62.8736-45.5168 28.7232 28.7232 0 1 1-57.3952 0 105.3184 105.3184 0 0 1 209.92-11.8272v2.1504A452.864 452.864 0 0 0 720.9472 281.6 308.9408 308.9408 0 0 0 496.64 192.7168z" fill="#FF5C64" p-id="4070"></path><path d="M212.4288 397.7216a450.56 450.56 0 0 0 353.28-198.7584 309.2992 309.2992 0 0 0-353.28 198.7584z" fill="#FF716E" p-id="4071"></path></svg>