<?xml version="1.0" standalone="no"?><!DOCTYPE svg PUBLIC "-//W3C//DTD SVG 1.1//EN" "http://www.w3.org/Graphics/SVG/1.1/DTD/svg11.dtd"><svg t="1765977666659" class="icon" viewBox="0 0 1024 1024" version="1.1" xmlns="http://www.w3.org/2000/svg" p-id="2130" xmlns:xlink="http://www.w3.org/1999/xlink" width="200" height="200"><path d="M513.9456 503.808m-450.816 0a450.816 450.816 0 1 0 901.632 0 450.816 450.816 0 1 0-901.632 0Z" fill="#FFF7DC" p-id="2131"></path><path d="M545.4848 427.52L513.9456 363.52l-31.5904 64a62.1056 62.1056 0 0 1-46.7968 33.9456l-70.6048 10.24 51.2 49.8176a62.0032 62.0032 0 0 1 17.8688 54.9888l-12.0832 70.3488 63.1808-33.2288a62.0544 62.0544 0 0 1 57.8048 0l63.1808 33.2288-12.1856-70.2464a61.9008 61.9008 0 0 1 17.8688-54.9888l51.2-49.8176-70.656-10.24a62.0544 62.0544 0 0 1-46.848-34.048z" fill="#FCA315" p-id="2132"></path><path d="M513.9456 166.144a337.92 337.92 0 1 0 337.92 337.92 337.92 337.92 0 0 0-337.92-337.92z m206.7456 345.4464L662.3744 568.32l13.7728 80.2816a62.0544 62.0544 0 0 1-90.1632 65.4848l-72.0384-37.888-72.0896 37.888a62.1056 62.1056 0 0 1-90.1632-65.3824l13.7728-80.384L307.2 511.5904a62.1568 62.1568 0 0 1 34.4576-105.984l80.5888-11.6736 35.84-73.0112a62.1056 62.1056 0 0 1 111.4112 0l35.84 73.0112L686.08 405.6064a62.1568 62.1568 0 0 1 34.4064 105.984z" fill="#FF8E12" p-id="2133"></path><path d="M775.8848 290.7648a337.92 337.92 0 1 0-440.32 499.8144h12.4928a430.7968 430.7968 0 0 0 242.688-74.3424c-1.5872-0.7168-3.2256-1.3824-4.8128-2.2016l-72.0384-37.888-72.0896 37.888a62.1056 62.1056 0 0 1-90.112-65.3312l13.7728-80.384L307.2 511.5904a62.1568 62.1568 0 0 1 34.4576-105.984l80.5888-11.6736 35.84-73.0112a62.1056 62.1056 0 0 1 111.4112 0l35.84 73.0112L686.08 405.6064a62.1568 62.1568 0 0 1 34.4064 105.984L662.3744 568.32l12.5952 73.2672a431.3088 431.3088 0 0 0 106.0864-283.904 438.4768 438.4768 0 0 0-5.1712-66.9184z" fill="#FCA315" p-id="2134"></path><path d="M176.2304 503.808a336.9984 336.9984 0 0 0 26.9312 132.352c8.7552 0.512 17.6128 0.8192 26.5216 0.8192a431.9232 431.9232 0 0 0 127.2832-19.0464l8.4992-49.6128L307.2 511.5904a62.1568 62.1568 0 0 1 34.4576-105.984l80.5888-11.6736 35.84-73.0112a62.1056 62.1056 0 0 1 111.4112 0l35.84 73.0112 12.2368 1.792a430.7968 430.7968 0 0 0 44.6976-191.6928v-3.4304a337.92 337.92 0 0 0-486.4 303.2064z" fill="#FCB138" p-id="2135"></path><path d="M432.1792 586.752a434.0224 434.0224 0 0 0 147.8656-128.4096 61.9008 61.9008 0 0 1-34.56-30.72L513.9456 363.52l-31.5904 64a62.1056 62.1056 0 0 1-46.7968 33.9456l-70.6048 10.24 51.2 49.8176a62.0032 62.0032 0 0 1 17.8688 54.9888z" fill="#FCB138" p-id="2136"></path><path d="M177.152 480.1024a427.9808 427.9808 0 0 0 114.0224-31.1808c0-0.3072 0-0.6656 0.256-1.024a61.9008 61.9008 0 0 1 50.176-42.2912l34.2016-5.12a434.3296 434.3296 0 0 0 80.9472-76.8l1.4848-2.9184a62.2592 62.2592 0 0 1 16.4864-20.7872 430.592 430.592 0 0 0 63.1808-133.12c-7.936-0.5632-15.9232-0.9216-23.9616-0.9216A337.92 337.92 0 0 0 177.152 480.1024z" fill="#FFC65E" p-id="2137"></path></svg>