<?xml version="1.0" standalone="no"?><!DOCTYPE svg PUBLIC "-//W3C//DTD SVG 1.1//EN" "http://www.w3.org/Graphics/SVG/1.1/DTD/svg11.dtd"><svg t="1765977725301" class="icon" viewBox="0 0 1024 1024" version="1.1" xmlns="http://www.w3.org/2000/svg" p-id="4710" xmlns:xlink="http://www.w3.org/1999/xlink" width="200" height="200"><path d="M512.8704 508.0576m-450.816 0a450.816 450.816 0 1 0 901.632 0 450.816 450.816 0 1 0-901.632 0Z" fill="#E9F4FF" p-id="4711"></path><path d="M358.8096 341.6064A31.3344 31.3344 0 0 1 327.68 310.3232V227.7888a31.3344 31.3344 0 1 1 62.6176 0v82.5344a31.3344 31.3344 0 0 1-31.488 31.2832z" fill="#6BC2FC" p-id="4712"></path><path d="M666.624 339.1488a30.3104 30.3104 0 0 1-30.2592-30.2592V229.2224a30.2592 30.2592 0 1 1 60.4672 0v79.6672a30.2592 30.2592 0 0 1-30.208 30.2592z" fill="#3A9CED" p-id="4713"></path><path d="M808.6528 380.8768V334.336a70.0928 70.0928 0 0 0-70.144-70.0928h-12.8512v45.0048a58.6752 58.6752 0 1 1-117.3504 0v-45.0048H417.4848v45.0048a58.6752 58.6752 0 0 1-117.3504 0v-45.0048H286.208A70.0928 70.0928 0 0 0 216.1152 334.336v46.5408z" fill="#3A9CED" p-id="4714"></path><path d="M216.1152 449.3312v271.36A70.0928 70.0928 0 0 0 286.208 790.528h452.3008a70.0928 70.0928 0 0 0 70.144-70.0928V449.3312z m442.368 100.608L500.8384 701.44a34.2528 34.2528 0 0 1-48.3328-0.8192l-87.04-89.6a34.2528 34.2528 0 1 1 49.152-47.6672l63.1808 65.1264 133.12-128a34.2528 34.2528 0 0 1 47.4624 49.3568z" fill="#2595E8" p-id="4715"></path><path d="M216.1152 449.3312v271.36a69.632 69.632 0 0 0 10.8032 37.0688 451.072 451.072 0 0 0 574.6688-308.4288z m442.368 100.608L500.8384 701.44a34.2528 34.2528 0 0 1-48.3328-0.8192l-87.04-89.6a34.2528 34.2528 0 1 1 49.152-47.6672l63.1808 65.1264 133.12-128a34.2528 34.2528 0 0 1 47.4624 49.3568z" fill="#3A9CED" p-id="4716"></path><path d="M216.1152 619.008c9.1136 0.5632 18.3296 0.8704 27.5968 0.8704a451.0208 451.0208 0 0 0 116.8384-15.36 34.2016 34.2016 0 0 1 54.1696-40.96l15.36 16.0256a453.4272 453.4272 0 0 0 166.5024-130.2528H216.1152zM649.6768 365.312a58.7776 58.7776 0 0 1-41.3696-56.064v-45.0048H417.4848v45.0048a58.6752 58.6752 0 0 1-117.3504 0v-45.0048H286.208A70.0928 70.0928 0 0 0 216.1152 334.336v46.5408h425.6256c2.7136-5.12 5.376-10.2912 7.936-15.5648zM666.624 198.9632a30.3104 30.3104 0 0 0-30.2592 30.2592v79.6672a30.1568 30.1568 0 0 0 25.1392 29.7472 446.3616 446.3616 0 0 0 30.72-125.2352 30.1056 30.1056 0 0 0-25.6-14.4384z" fill="#59ADF8" p-id="4717"></path><path d="M502.272 264.2432H417.4848v45.0048a58.6752 58.6752 0 0 1-117.3504 0v-45.0048H286.208A70.0928 70.0928 0 0 0 216.1152 334.336v46.5408h169.7792A454.144 454.144 0 0 0 502.272 264.2432z" fill="#6BC2FC" p-id="4718"></path></svg>