<?xml version="1.0" standalone="no"?><!DOCTYPE svg PUBLIC "-//W3C//DTD SVG 1.1//EN" "http://www.w3.org/Graphics/SVG/1.1/DTD/svg11.dtd"><svg t="1765977758542" class="icon" viewBox="0 0 1024 1024" version="1.1" xmlns="http://www.w3.org/2000/svg" p-id="1312" xmlns:xlink="http://www.w3.org/1999/xlink" width="200" height="200"><path d="M787.8656 358.912c-73.728-48.4352-171.1104-75.1104-274.1248-75.1104S313.3952 310.4768 239.6672 358.912C161.28 410.4192 118.1184 480.4096 118.1184 556.032c0 104.0896 83.3024 197.376 217.4464 243.456 19.6608 6.7584 36.4032 15.616 49.664 26.3168 34.6112 27.904 49.0496 58.4704 44.0832 93.4912l-5.2224 37.0176 36.7104 3.6352c0.7168 0.1024 1.3824 0.2048 1.8944 0.256l19.5072 2.048 12.2368-15.3088c36.1472-45.2608 113.408-112.384 212.48-152.832 3.84-1.4848 7.6288-2.9696 11.3664-4.5056l10.2912-3.8912 0.6656-0.8192c113.0496-50.0736 180.224-135.1168 180.224-228.864-0.0512-75.6224-43.2128-145.6128-121.6-197.12zM294.912 565.6576c-0.9216 15.104 6.4512 29.8496 22.4768 45.056l-49.3568 51.968c-39.8848-37.888-46.2848-76.288-44.6464-101.8368 4.3008-66.9184 65.1264-113.2032 72.0384-118.2208l21.1456 28.928 21.248 28.8768c-11.3664 8.3968-41.216 36.608-42.9056 65.2288z" fill="#6CCE25" p-id="1313"></path><path d="M820.1216 126.3104h-139.52l21.7088-51.712H342.7328l21.1968 51.712H223.4368l119.7056 155.4944s127.488-59.648 278.4768-22.7328l2.7648 1.1776 0.2048-0.4608c22.1696 5.5808 44.8512 13.2608 67.6352 23.552l127.8976-157.0304z" fill="#ACED7A" p-id="1314"></path></svg>