<?xml version="1.0" standalone="no"?><!DOCTYPE svg PUBLIC "-//W3C//DTD SVG 1.1//EN" "http://www.w3.org/Graphics/SVG/1.1/DTD/svg11.dtd"><svg t="1765977722176" class="icon" viewBox="0 0 1024 1024" version="1.1" xmlns="http://www.w3.org/2000/svg" p-id="4549" xmlns:xlink="http://www.w3.org/1999/xlink" width="200" height="200"><path d="M510.208 511.488m-450.816 0a450.816 450.816 0 1 0 901.632 0 450.816 450.816 0 1 0-901.632 0Z" fill="#E9F4FF" p-id="4550"></path><path d="M580.4032 546.8672L479.1296 488.3968a10.24 10.24 0 0 0-5.12-1.4336 9.728 9.728 0 0 0-5.12 1.4336 9.6256 9.6256 0 0 0-5.12 8.6528v116.9408a9.6768 9.6768 0 0 0 5.12 8.704 9.7792 9.7792 0 0 0 10.24 0l101.2736-58.4704a10.24 10.24 0 0 0 0-17.3568z" fill="#3A9CED" p-id="4551"></path><path d="M846.7456 461.1584L793.6 406.3744V260.6592c0-12.7488-8.2944-23.1424-18.5344-23.1424h-84.8384c-10.24 0-18.5344 10.24-18.5344 23.1424V281.6l-90.112-92.6208a94.976 94.976 0 0 0-134.144 0L182.272 461.1584c-18.0224 18.5344-4.0448 48.3328 22.6816 48.3328h39.7824v221.7984c0 47.104 40.96 85.2992 90.88 85.2992h353.792c50.176 0 90.8288-38.1952 90.8288-85.2992V509.4912H824.32c26.4704 0 40.448-29.7984 22.4256-48.3328z m-235.52 156.2624L509.8496 675.84a71.68 71.68 0 0 1-107.2128-61.9008V497.0496A71.68 71.68 0 0 1 509.8496 435.2l101.2736 58.4704a71.68 71.68 0 0 1 0 123.8016z" fill="#2595E8" p-id="4552"></path><path d="M793.6 406.3744V260.6592c0-12.7488-8.2944-23.1424-18.5344-23.1424h-84.8384c-10.24 0-18.5344 10.24-18.5344 23.1424V281.6l-90.112-92.6208a94.976 94.976 0 0 0-134.144 0L182.272 461.1584c-18.0224 18.5344-4.0448 48.3328 22.6816 48.3328h39.7824v221.7984a71.68 71.68 0 0 0 0.512 8.7552 441.4976 441.4976 0 0 0 534.9888-202.8032v-27.7504h14.0288a439.296 439.296 0 0 0 26.7776-74.7008z m-182.272 211.0464L509.8496 675.84a71.68 71.68 0 0 1-107.2128-61.9008V497.0496A71.68 71.68 0 0 1 509.8496 435.2l101.2736 58.4704a71.68 71.68 0 0 1 0 123.8016z" fill="#3A9CED" p-id="4553"></path><path d="M536.576 521.5232l-57.4464-33.1264a10.24 10.24 0 0 0-5.12-1.4336 9.728 9.728 0 0 0-5.12 1.4336 9.6256 9.6256 0 0 0-5.12 8.6528v68.4544a439.7568 439.7568 0 0 0 72.8064-43.9808z" fill="#59ADF8" p-id="4554"></path><path d="M690.2272 237.5168c-10.24 0-18.5344 10.24-18.5344 23.1424V281.6l-90.112-92.6208a94.976 94.976 0 0 0-134.144 0L182.272 461.1584c-18.0224 18.5344-4.0448 48.3328 22.6816 48.3328h39.7824v98.4576c9.3184 0.5632 18.688 0.9728 28.16 0.9728a441.2928 441.2928 0 0 0 129.7408-19.4048V497.0496A71.68 71.68 0 0 1 509.8496 435.2l75.8272 43.8272a440.32 440.32 0 0 0 122.88-241.4592z" fill="#59ADF8" p-id="4555"></path><path d="M447.4368 188.7744l-256 262.8608a441.3952 441.3952 0 0 0 378.88-272.5376 95.0784 95.0784 0 0 0-122.88 9.6768z" fill="#6BC2FC" p-id="4556"></path></svg>